<svg width="84" height="67" viewBox="0 0 84 67" fill="none" xmlns="http://www.w3.org/2000/svg">
<path d="M10.0322 9.88992C9.87831 5.52715 13.3162 1.50482 17.9644 1.50482H65.5867C70.2338 1.50482 73.6728 5.52715 73.5189 9.88992C73.3713 14.0799 73.5629 19.5085 74.9447 23.9344C76.3308 28.3738 78.6695 31.1802 82.4979 31.5403V35.6289C78.6685 35.989 76.3308 38.7954 74.9447 43.2347C73.5629 47.6606 73.3713 53.0882 73.5189 57.2792C73.6717 61.641 70.2338 65.6633 65.5867 65.6633H17.9644C13.3173 65.6633 9.87831 61.641 10.0322 57.2792C10.1798 53.0893 9.98824 47.6606 8.60636 43.2347C7.2203 38.7954 4.87634 35.989 1.04688 35.6289V31.5403C4.87634 31.1802 7.21925 28.3738 8.60636 23.9344C9.98824 19.5075 10.1798 14.0799 10.0322 9.88992Z" fill="#9C55D4"/>
<path d="M65.5867 66.6981H17.9644C15.566 66.6981 13.3152 65.745 11.6245 64.0148C9.85842 62.2091 8.89844 59.741 8.98533 57.2419C9.11933 53.438 8.98952 47.9731 7.60555 43.54C6.25089 39.2041 4.07339 36.9534 0.947423 36.6585C0.409329 36.6078 0 36.1628 0 35.6288V31.5403C0 31.0063 0.410376 30.5613 0.947423 30.5106C4.07339 30.2157 6.25089 27.965 7.60555 23.6291C8.98952 19.196 9.11933 13.7311 8.98533 9.92714C8.89739 7.42806 9.85842 4.96003 11.6245 3.15428C13.3142 1.42303 15.566 0.469971 17.9644 0.469971H65.5867C67.9851 0.469971 70.2369 1.42303 71.9276 3.15324C73.6927 4.959 74.6537 7.42806 74.5647 9.9261C74.4318 13.7311 74.5626 19.197 75.9445 23.6281C77.2992 27.964 79.4756 30.2157 82.5974 30.5096C83.1355 30.5603 83.5448 31.0053 83.5448 31.5392V35.6278C83.5448 36.1617 83.1344 36.6067 82.5974 36.6574C79.4756 36.9513 77.2981 39.2031 75.9445 43.5389C74.5626 47.97 74.4318 53.4359 74.5647 57.2409C74.6537 59.739 73.6927 62.208 71.9276 64.0138C70.2369 65.745 67.9851 66.6981 65.5867 66.6981ZM2.09375 34.7368C5.60392 35.4436 8.12794 38.1941 9.60613 42.9294C11.077 47.6389 11.2194 53.351 11.078 57.3144C11.011 59.2547 11.7575 61.1732 13.131 62.5774C14.4228 63.8999 16.1397 64.6285 17.9644 64.6285H65.5867C67.4114 64.6285 69.1293 63.8999 70.4212 62.5774C71.7936 61.1742 72.5401 59.2547 72.472 57.3154C72.3317 53.351 72.4752 47.6368 73.9439 42.9305C75.4221 38.1952 77.9451 35.4446 81.4511 34.7378V32.4312C77.9451 31.7245 75.4221 28.9739 73.9439 24.2386C72.4752 19.5313 72.3317 13.818 72.472 9.85367C72.5401 7.91443 71.7936 5.99484 70.4212 4.59164C69.1293 3.26811 67.4114 2.5396 65.5867 2.5396H17.9644C16.1397 2.5396 14.4228 3.26811 13.131 4.58957C11.7575 5.99381 11.011 7.91235 11.078 9.85263C11.2194 13.816 11.077 19.5292 9.60613 24.2376C8.12794 28.9729 5.60392 31.7234 2.09375 32.4302V34.7368Z" fill="#1F212B"/>
<path d="M17.9644 61.524C16.727 61.524 15.8812 60.9238 15.3891 60.4219C14.6061 59.62 14.1789 58.5262 14.2177 57.423C14.3663 53.2217 14.2072 47.138 12.6076 42.0147C11.2707 37.7326 9.24711 35.1342 7.0874 33.5851C9.24711 32.0359 11.2707 29.4355 12.6076 25.1555C14.2072 20.0331 14.3663 13.9484 14.2177 9.74605C14.1789 8.64397 14.6061 7.55017 15.3891 6.74819C15.8812 6.24423 16.727 5.64404 17.9644 5.64404H65.5868C66.8252 5.64404 67.6701 6.24424 68.1621 6.74716C68.9451 7.5481 69.3723 8.64087 69.3325 9.74398" fill="#9C55D4"/>
<path d="M17.9645 62.0414C16.5449 62.0414 15.5766 61.3563 15.0134 60.781C14.1308 59.8776 13.6514 58.6461 13.6943 57.4033C13.8419 53.2413 13.6849 47.2176 12.1072 42.1657C10.9473 38.4517 9.15505 35.7053 6.77864 34.001C6.6436 33.9037 6.56299 33.7485 6.56299 33.5829C6.56299 33.4174 6.6436 33.2611 6.77864 33.1649C9.15505 31.4616 10.9463 28.7141 12.1072 25.0002C13.6849 19.9482 13.8409 13.9256 13.6943 9.76152C13.6503 8.51974 14.1308 7.28831 15.0134 6.38595C15.5766 5.80956 16.5449 5.12451 17.9645 5.12451H65.5868C67.0075 5.12451 67.9758 5.81059 68.538 6.38595C69.4205 7.28831 69.901 8.51974 69.856 9.76152C69.8455 10.0471 69.6225 10.2831 69.3137 10.2603C69.0248 10.2499 68.7987 10.0099 68.8091 9.72426C68.8437 8.76085 68.471 7.80572 67.7853 7.10515C67.3634 6.67363 66.64 6.15933 65.5858 6.15933H17.9635C16.9103 6.15933 16.1869 6.67259 15.764 7.10411C15.0793 7.80572 14.7045 8.76189 14.7391 9.72426C14.8888 13.968 14.7265 20.1138 13.1049 25.3044C11.9659 28.9501 10.2312 31.7317 7.94068 33.5819C10.2312 35.4322 11.9659 38.2137 13.1049 41.8594C14.7265 47.05 14.8877 53.1958 14.7391 57.4385C14.7045 58.403 15.0783 59.3581 15.764 60.0607C16.1859 60.4912 16.9103 61.0045 17.9635 61.0045C18.2524 61.0045 18.4869 61.2363 18.4869 61.5219C18.4869 61.8075 18.2534 62.0414 17.9645 62.0414Z" fill="#1F212B"/>
<path d="M28.4248 62.0414H24.1064C23.8175 62.0414 23.583 61.8096 23.583 61.524C23.583 61.2384 23.8175 61.0066 24.1064 61.0066H28.4248C28.7137 61.0066 28.9482 61.2384 28.9482 61.524C28.9482 61.8096 28.7137 62.0414 28.4248 62.0414Z" fill="#1F212B"/>
<path d="M70.9426 25.1545C72.2794 29.4355 74.3031 32.035 76.4607 33.5841C74.302 35.1332 72.2794 37.7337 70.9426 42.0137C69.3451 47.1339 69.1849 53.2186 69.3325 57.4221C69.3723 58.5262 68.9451 59.619 68.1621 60.4199C67.6701 60.9239 66.8252 61.5241 65.5868 61.5241H31.1729" fill="#9C55D4"/>
<path d="M65.5868 62.0415H31.1729C30.8839 62.0415 30.6494 61.8097 30.6494 61.5241C30.6494 61.2385 30.8839 61.0067 31.1729 61.0067H65.5868C66.641 61.0067 67.3633 60.4924 67.7863 60.0609C68.4709 59.3593 68.8447 58.4041 68.8101 57.4407C68.6614 53.1969 68.8248 47.0501 70.4443 41.8616C71.5833 38.2159 73.3179 35.4354 75.6064 33.5841C73.3179 31.7328 71.5833 28.9523 70.4443 25.3066C70.3584 25.0334 70.5134 24.7437 70.7897 24.6599C71.0651 24.5719 71.3592 24.7282 71.444 25.0014C72.604 28.7143 74.3962 31.4607 76.7705 33.166C76.9056 33.2633 76.9862 33.4185 76.9862 33.5841C76.9862 33.7497 76.9056 33.9059 76.7705 34.0022C74.3962 35.7065 72.605 38.4539 71.444 42.1669C69.8685 47.2178 69.7115 53.2404 69.857 57.4045C69.902 58.6473 69.4215 59.8787 68.539 60.7811C67.9757 61.3554 67.0074 62.0415 65.5868 62.0415Z" fill="#1F212B"/>
<path d="M47.6381 32.573V32.5202C51.1755 31.9159 53.9361 28.6386 53.9361 25.0282C53.9361 22.4763 52.9436 20.3146 51.0645 18.7779C49.1927 17.2464 46.564 16.4361 43.4652 16.4361H29.2686V50.7164H43.5385C47.2465 50.7164 50.3244 49.8213 52.439 48.1273C54.5569 46.4312 55.676 43.9632 55.676 40.9891C55.677 36.498 52.4495 33.1235 47.6381 32.573ZM40.9904 30.9566H34.9185V20.922H42.143C46.1065 20.922 48.2882 22.6408 48.2882 25.7618C48.2871 29.1115 45.6961 30.9566 40.9904 30.9566ZM34.9175 35.158H42.0928C47.2769 35.158 49.9046 37.0092 49.9046 40.6601C49.9046 44.3057 47.3135 46.2336 42.411 46.2336H34.9175V35.158Z" fill="white"/>
<path d="M43.5396 51.2348H29.2686C28.9796 51.2348 28.7451 51.003 28.7451 50.7174V16.4371C28.7451 16.1515 28.9796 15.9197 29.2686 15.9197H43.4663C46.6896 15.9197 49.4324 16.7704 51.3995 18.3805C53.4011 20.0186 54.4606 22.318 54.4606 25.0292C54.4606 28.1988 52.4474 31.146 49.6229 32.4426C53.6272 33.6099 56.2005 36.8602 56.2005 40.9912C56.2005 44.1257 55.0144 46.7334 52.7699 48.5309C50.5609 50.2994 47.369 51.2348 43.5396 51.2348ZM29.792 50.2H43.5396C47.1272 50.2 50.0909 49.3453 52.1114 47.7258C54.1015 46.1322 55.1536 43.8028 55.1536 40.9902C55.1536 36.7816 52.1093 33.6047 47.5784 33.0863C47.3146 33.0563 47.1157 32.8348 47.1157 32.572V32.5202C47.1157 32.2688 47.2989 32.0535 47.5501 32.0101C50.8384 31.4492 53.4147 28.382 53.4147 25.0282C53.4147 22.6346 52.4872 20.6116 50.7326 19.1763C48.9561 17.7234 46.4425 16.9546 43.4673 16.9546H29.792V50.2ZM42.411 46.751H34.9175C34.6286 46.751 34.3941 46.5192 34.3941 46.2336V35.158C34.3941 34.8724 34.6286 34.6406 34.9175 34.6406H42.0928C48.9823 34.6406 50.429 37.9137 50.429 40.6601C50.429 44.5882 47.5815 46.751 42.411 46.751ZM35.4409 45.7162H42.411C47.0361 45.7162 49.3811 44.0149 49.3811 40.6601C49.3811 37.3062 46.9974 35.6754 42.0917 35.6754H35.4399L35.4409 45.7162ZM40.9904 31.474H34.9175C34.6286 31.474 34.3941 31.2422 34.3941 30.9566V20.922C34.3941 20.6364 34.6286 20.4046 34.9175 20.4046H42.142C46.3797 20.4046 48.8106 22.3573 48.8106 25.7619C48.8116 29.392 45.961 31.474 40.9904 31.474ZM35.4409 30.4392H40.9904C44.0808 30.4392 47.7647 29.6279 47.7647 25.7608C47.7647 22.1886 44.7079 21.4384 42.143 21.4384H35.442L35.4409 30.4392Z" fill="#1F212B"/>
</svg>
