<svg width="100" height="100" viewBox="0 0 100 100" fill="none" xmlns="http://www.w3.org/2000/svg">
<path d="M83.105 15.3018H16.895L22.737 80.75L50 88.4493L77.263 80.75L83.105 15.3018Z" fill="#3070B7"/>
<path d="M50 89.4377C49.907 89.4377 49.815 89.4249 49.726 89.3992L22.463 81.6989C22.065 81.5862 21.777 81.2432 21.741 80.835L15.898 15.3878C15.874 15.112 15.967 14.8382 16.157 14.6336C16.347 14.4289 16.614 14.3133 16.895 14.3133H83.106C83.386 14.3133 83.654 14.4299 83.843 14.6345C84.032 14.8392 84.126 15.113 84.102 15.3888L78.259 80.836C78.223 81.2442 77.936 81.5872 77.537 81.6999L50.274 89.4001C50.185 89.4249 50.093 89.4377 50 89.4377ZM23.673 79.9859L50 87.4212L76.327 79.9859L82.014 16.2903H17.986L23.673 79.9859Z" fill="black"/>
<path d="M50 20.7384V82.4818L71.811 76.3226L76.709 20.7384H50Z" fill="#09ACE3"/>
<path d="M67.721 30.7013H50L49 34.0829L50 38.4006H59.542L58.958 46.1008H50L49 49.8986L50 53.8001H58.568L57.984 62.4631L50 65.1577L49 69.6681L50 73.2425L65.384 68.2378L66.747 46.1008L67.721 30.7013Z" fill="#FEFDEF"/>
<path d="M50 30.7013V38.4006H32.668L32.084 30.7013H50ZM41.042 46.1008L41.431 53.8001H50V46.1008H41.042ZM41.821 57.6502H34.032L34.616 68.2378L50 73.2425V65.1577L42.016 62.4631L41.821 57.6502Z" fill="#EEECD9"/>
<path d="M50 31.1956C49.724 31.1956 49.5 30.9741 49.5 30.7013V20.7384C49.5 20.4656 49.724 20.2442 50 20.2442H53.5C53.776 20.2442 54 20.4656 54 20.7384C54 21.0113 53.776 21.2327 53.5 21.2327H50.5V30.7013C50.5 30.9741 50.276 31.1956 50 31.1956Z" fill="#1F212B"/>
<path d="M60.5 21.2327H56.5C56.224 21.2327 56 21.0113 56 20.7384C56 20.4656 56.224 20.2442 56.5 20.2442H60.5C60.776 20.2442 61 20.4656 61 20.7384C61 21.0113 60.776 21.2327 60.5 21.2327Z" fill="#1F212B"/>
<path d="M50 82.9761C49.893 82.9761 49.787 82.9415 49.699 82.8762C49.573 82.7823 49.5 82.636 49.5 82.4818V76.0933C49.5 75.8205 49.724 75.599 50 75.599C50.276 75.599 50.5 75.8205 50.5 76.0933V81.8265L71.343 75.9401L76.163 21.2327H63.5C63.224 21.2327 63 21.0113 63 20.7384C63 20.4656 63.224 20.2442 63.5 20.2442H76.709C76.85 20.2442 76.982 20.3025 77.077 20.4043C77.172 20.5061 77.22 20.6435 77.207 20.7809L72.309 76.3641C72.291 76.5687 72.148 76.7397 71.949 76.7971L50.138 82.9573C50.092 82.9701 50.046 82.9761 50 82.9761Z" fill="#1F212B"/>
<path d="M50 65.652C49.724 65.652 49.5 65.4305 49.5 65.1577V56.7655C49.5 56.4927 49.724 56.2713 50 56.2713C50.276 56.2713 50.5 56.4927 50.5 56.7655V65.1577C50.5 65.4305 50.276 65.652 50 65.652Z" fill="#1F212B"/>
<path d="M50 46.595C49.724 46.595 49.5 46.3736 49.5 46.1008V41.367C49.5 41.0942 49.724 40.8727 50 40.8727C50.276 40.8727 50.5 41.0942 50.5 41.367V46.1008C50.5 46.3736 50.276 46.595 50 46.595Z" fill="#1F212B"/>
<path d="M50 73.7367C49.947 73.7367 49.895 73.7288 49.844 73.712L34.46 68.7074C34.265 68.6441 34.128 68.4681 34.117 68.2645L33.532 57.6779C33.524 57.5425 33.574 57.41 33.668 57.3112C33.763 57.2123 33.894 57.157 34.031 57.157H41.821C42.09 57.157 42.31 57.3665 42.321 57.6315L42.502 62.1053L50 64.6358L57.508 62.1014L58.034 54.2953H41.432C41.165 54.2953 40.946 54.0887 40.933 53.8258L40.543 46.1255C40.536 45.9901 40.585 45.8577 40.68 45.7598C40.775 45.662 40.906 45.6066 41.042 45.6066H58.494L59.003 38.8958H32.668C32.406 38.8958 32.189 38.6961 32.169 38.4391L31.585 30.7389C31.575 30.6015 31.623 30.4661 31.718 30.3662C31.813 30.2654 31.946 30.2081 32.084 30.2081H67.721C67.859 30.2081 67.991 30.2644 68.085 30.3642C68.179 30.4641 68.229 30.5975 68.22 30.7339L65.883 68.2695C65.87 68.4721 65.735 68.6461 65.54 68.7093L50.156 73.714C50.105 73.7278 50.053 73.7367 50 73.7367ZM35.097 67.8741L50 72.7216L64.905 67.8721L67.188 31.1956H32.623L33.132 37.9073H59.542C59.681 37.9073 59.813 37.9647 59.908 38.0655C60.003 38.1663 60.051 38.3007 60.041 38.4381L59.457 46.1374C59.437 46.3954 59.22 46.5941 58.958 46.5941H41.567L41.907 53.3059H58.568C58.707 53.3059 58.839 53.3622 58.933 53.462C59.027 53.5619 59.076 53.6963 59.067 53.8327L58.483 62.4948C58.469 62.6935 58.337 62.8654 58.145 62.9297L50.161 65.6253C50.057 65.6609 49.942 65.6609 49.839 65.6253L41.855 62.9297C41.659 62.8635 41.525 62.6855 41.516 62.4819L41.341 58.1445H34.56L35.097 67.8741Z" fill="#1F212B"/>
</svg>
