<svg width="100" height="100" viewBox="0 0 100 100" fill="none" xmlns="http://www.w3.org/2000/svg">
<path d="M92.5125 77.9023C90.2687 77.9023 88.1162 76.8496 86.7537 75.0888L72.2587 56.3535L57.7637 75.0888C56.4012 76.8508 54.2487 77.9023 52.005 77.9023H47.72L68.325 51.2677L47.8262 24.7715H52.1112C54.355 24.7715 56.5087 25.823 57.87 27.5838L72.2575 46.182L86.645 27.5838C88.0075 25.8218 90.16 24.7715 92.4037 24.7715H96.6887L76.1925 51.2677L96.7975 77.9023H92.5125Z" fill="#B0C1D4"/>
<path d="M95.4262 25.3893L75.405 51.2677L95.5325 77.2845H92.5125C90.4487 77.2845 88.5037 76.3343 87.25 74.7132L72.2587 55.3366L57.2675 74.7132C56.0137 76.3343 54.0675 77.2845 52.005 77.2845H48.9837L69.1112 51.2677L49.0912 25.3893H52.1125C54.1762 25.3893 56.1212 26.3395 57.375 27.9606L72.2587 47.2001L87.1425 27.9606C88.3962 26.3395 90.3412 25.3893 92.405 25.3893H95.4262ZM97.955 24.1537H95.425H92.4037C89.9675 24.1537 87.6287 25.2967 86.1475 27.2094L72.2587 45.1651L58.3675 27.2094C56.8875 25.2967 54.5487 24.1537 52.1112 24.1537H49.09H46.56L48.0962 26.1394L67.5375 51.2677L47.9912 76.5345L46.4537 78.5201H48.9837H52.005C54.4412 78.5201 56.78 77.3772 58.2612 75.4645L72.2587 57.3704L86.2562 75.4645C87.7362 77.3772 90.075 78.5201 92.5125 78.5201H95.5337H98.0637L96.5275 76.5345L76.9787 51.2677L96.4187 26.1394L97.955 24.1537Z" fill="#374151"/>
<path d="M25 80.3735C12.2487 80.3735 1.875 69.7548 1.875 56.7044V45.9683C1.875 32.9179 12.2487 22.3004 25 22.3004C37.7513 22.3004 48.125 32.9179 48.125 45.967V55.6603L8.125 55.6615V56.7044C8.125 66.3495 15.695 74.1955 25 74.1955C30.1388 74.1955 35.1162 71.6415 38.3162 67.3639C39.7675 65.4228 41.8913 64.3095 44.1425 64.3095H46.2812L46.5363 64.5615L46.7038 64.8927L46.61 65.1435C43.2137 74.2536 34.53 80.3735 25 80.3735ZM41.875 49.4835V45.967C41.875 36.3244 34.305 28.4783 25 28.4783C15.695 28.4783 8.125 36.3244 8.125 45.9683V49.4835H41.875Z" fill="#B0C1D4"/>
<path d="M25 22.9182C37.4062 22.9182 47.5 33.2589 47.5 45.967V55.0425L7.5 55.0437V56.7044C7.5 66.6905 15.35 74.8133 25 74.8133C30.47 74.8133 35.5575 72.0913 38.8187 67.7309C40.0887 66.0331 42.0062 64.9273 44.1425 64.9273H46.0238V64.9298C42.7188 73.7952 34.2637 79.7557 25 79.7557C12.5938 79.7557 2.5 69.415 2.5 56.7044V45.9683C2.5 33.2589 12.5938 22.9182 25 22.9182ZM7.5 50.1013H42.5V45.967C42.5 35.9834 34.65 27.8606 25 27.8606C15.35 27.8606 7.5 35.9834 7.5 45.967V50.1013ZM25 21.6826C11.9037 21.6826 1.25 32.5768 1.25 45.967V56.7031C1.25 70.0958 11.9037 80.9913 25 80.9913C34.79 80.9913 43.71 74.7083 47.1975 65.3573L47.8175 63.6942L46.0238 63.6917H44.1425C41.6912 63.6917 39.385 64.8964 37.8138 66.9969C34.7313 71.1176 29.9412 73.5777 25 73.5777C16.04 73.5777 8.75 66.0084 8.75 56.7044V56.2793L47.5 56.2781H48.75V55.0425V45.967C48.75 32.5768 38.0962 21.6826 25 21.6826ZM8.75 48.8657V45.967C8.75 36.6642 16.04 29.0962 25 29.0962C33.96 29.0962 41.25 36.6642 41.25 45.967V48.8657H8.75Z" fill="#374151"/>
</svg>
