<svg width="100" height="100" viewBox="0 0 100 100" fill="none" xmlns="http://www.w3.org/2000/svg">
<path d="M77 12.7534C76.448 12.7534 76 13.1962 76 13.7419C76 14.2875 76.448 14.7303 77 14.7303C77.552 14.7303 78 14.2875 78 13.7419C78 13.1962 77.552 12.7534 77 12.7534Z" fill="#F1BC19"/>
<path d="M50 13.7419C29.565 13.7419 13 30.116 13 50.3156C13 70.5152 29.565 86.8893 50 86.8893C70.435 86.8893 87 70.5152 87 50.3156C87 30.116 70.435 13.7419 50 13.7419Z" fill="#E4E4F9"/>
<path d="M83 11.7649C80.791 11.7649 79 13.5353 79 15.7188C79 17.9024 80.791 19.6727 83 19.6727C85.209 19.6727 87 17.9024 87 15.7188C87 13.5353 85.209 11.7649 83 11.7649Z" fill="#F1BC19"/>
<path d="M87 22.6382C85.895 22.6382 85 23.5229 85 24.6151C85 25.7074 85.895 26.5921 87 26.5921C88.105 26.5921 89 25.7074 89 24.6151C89 23.5229 88.105 22.6382 87 22.6382Z" fill="#8889B9"/>
<path d="M81 74.0391C79.895 74.0391 79 74.9238 79 76.0161C79 77.1083 79.895 77.993 81 77.993C82.105 77.993 83 77.1083 83 76.0161C83 74.9238 82.105 74.0391 81 74.0391ZM15 59.2119C12.791 59.2119 11 60.9823 11 63.1658C11 65.3494 12.791 67.1197 15 67.1197C17.209 67.1197 19 65.3494 19 63.1658C19 60.9823 17.209 59.2119 15 59.2119Z" fill="#FBCD59"/>
<path d="M25 84.9124C23.895 84.9124 23 85.797 23 86.8893C23 87.9816 23.895 88.8663 25 88.8663C26.105 88.8663 27 87.9816 27 86.8893C27 85.797 26.105 84.9124 25 84.9124Z" fill="#8889B9"/>
<path d="M18.5 49.3271C17.119 49.3271 16 50.4332 16 51.7983C16 53.1634 17.119 54.2695 18.5 54.2695C19.881 54.2695 21 53.1634 21 51.7983C21 50.4332 19.881 49.3271 18.5 49.3271ZM79.5 32.523C78.672 32.523 78 33.1872 78 34.0057C78 34.8242 78.672 35.4884 79.5 35.4884C80.328 35.4884 81 34.8242 81 34.0057C81 33.1872 80.328 32.523 79.5 32.523Z" fill="white"/>
<path d="M59.5 60.2765C64.3601 60.2765 68.3 56.382 68.3 51.5779C68.3 46.7737 64.3601 42.8792 59.5 42.8792C54.6398 42.8792 50.7 46.7737 50.7 51.5779C50.7 56.382 54.6398 60.2765 59.5 60.2765Z" fill="#39C1D7"/>
<path d="M42.189 76.107C37.514 76.107 33.725 72.4012 33.725 67.8304C33.725 63.2597 37.515 59.5539 42.189 59.5539L50.697 59.5104V67.7869C50.698 72.3587 46.864 76.107 42.189 76.107Z" fill="#A0D2A1"/>
<path d="M42.184 42.8101C37.506 42.8101 33.714 39.0617 33.714 34.4376C33.714 29.8135 37.506 26.0652 42.184 26.0652L50.698 26.0217V42.7656L42.184 42.8101Z" fill="#EE3E54"/>
<path d="M42.184 59.5539C37.506 59.5539 33.714 55.8056 33.714 51.1815C33.714 46.5574 37.506 42.8091 42.184 42.8091L50.698 42.7656V59.5094L42.184 59.5539Z" fill="#BEACE5"/>
<path d="M59.836 26.0662L51.41 26.0227V42.7666L59.836 42.8101C64.514 42.8101 68.306 39.0618 68.306 34.4377C68.305 29.8145 64.513 26.0662 59.836 26.0662Z" fill="#F48E8F"/>
<path d="M59.5 60.2765C64.3601 60.2765 68.3 56.382 68.3 51.5779C68.3 46.7737 64.3601 42.8792 59.5 42.8792C54.6398 42.8792 50.7 46.7737 50.7 51.5779C50.7 56.382 54.6398 60.2765 59.5 60.2765Z" stroke="#472B29" stroke-width="1.4" stroke-miterlimit="10"/>
<path d="M42.189 76.107C37.514 76.107 33.725 72.4012 33.725 67.8304C33.725 63.2597 37.515 59.5539 42.189 59.5539L50.697 59.5104V67.7869C50.698 72.3587 46.864 76.107 42.189 76.107Z" stroke="#472B29" stroke-width="1.4" stroke-miterlimit="10"/>
<path d="M42.184 42.8101C37.506 42.8101 33.714 39.0617 33.714 34.4376C33.714 29.8135 37.506 26.0652 42.184 26.0652L50.698 26.0217V42.7656L42.184 42.8101Z" stroke="#472B29" stroke-width="1.4" stroke-miterlimit="10"/>
<path d="M42.184 59.5539C37.506 59.5539 33.714 55.8056 33.714 51.1815C33.714 46.5574 37.506 42.8091 42.184 42.8091L50.698 42.7656V59.5094L42.184 59.5539Z" stroke="#472B29" stroke-width="1.4" stroke-miterlimit="10"/>
<path d="M51.41 26.0227L59.836 26.0662C64.514 26.0662 68.306 29.8145 68.306 34.4386C68.306 39.0628 64.514 42.8111 59.836 42.8111L51.41 42.7676" stroke="#472B29" stroke-width="1.4" stroke-miterlimit="10"/>
<path d="M38.141 36.7517C38.946 38.098 40.429 39.0005 42.126 39.0005" stroke="#472B29" stroke-miterlimit="10" stroke-linecap="round" stroke-linejoin="round"/>
<path d="M37.799 32.8066C37.606 33.3108 37.5 33.8564 37.5 34.4277" stroke="#472B29" stroke-miterlimit="10" stroke-linecap="round" stroke-linejoin="round"/>
<path d="M46.7281 29.8313L42.126 29.8551C40.82 29.8551 39.641 30.3898 38.8 31.2498" stroke="#472B29" stroke-miterlimit="10" stroke-linecap="round" stroke-linejoin="round"/>
<path d="M40.5 63.5899C41.004 63.406 41.549 63.3052 42.118 63.3052" stroke="#472B29" stroke-miterlimit="10" stroke-linecap="round"/>
<path d="M38.299 70.36C37.795 69.6364 37.5 68.7626 37.5 67.8216C37.5 66.7184 37.904 65.7082 38.576 64.9233" stroke="#472B29" stroke-miterlimit="10" stroke-linecap="round"/>
<path d="M42.118 72.3359C41.361 72.3359 40.646 72.158 40.015 71.8417" stroke="#472B29" stroke-miterlimit="10" stroke-linecap="round"/>
<path d="M46.76 67.7968C46.76 69.2292 46.07 70.5142 44.999 71.3485" stroke="#472B29" stroke-miterlimit="10" stroke-linecap="round"/>
<path d="M56.505 55.5644C55.288 54.6629 54.5 53.2257 54.5 51.6065" stroke="#472B29" stroke-miterlimit="10" stroke-linecap="round" stroke-linejoin="round"/>
<path d="M64.11 49.6899C64.361 50.279 64.5 50.9275 64.5 51.6075C64.5 54.3367 62.261 56.5499 59.5 56.5499" stroke="#472B29" stroke-miterlimit="10" stroke-linecap="round" stroke-linejoin="round"/>
<path d="M59.5 46.6642C60.536 46.6642 61.498 46.9755 62.296 47.5083" stroke="#472B29" stroke-miterlimit="10" stroke-linecap="round" stroke-linejoin="round"/>
</svg>
