<svg width="79" height="79" viewBox="0 0 79 79" fill="none" xmlns="http://www.w3.org/2000/svg">
<path d="M69.4542 36.6727L42.6272 10.1547C41.8042 9.34127 40.6522 8.85321 39.5001 8.85321C38.348 8.85321 37.1959 9.34127 36.373 10.1547L30.6126 15.8488L37.3605 22.5189C38.0188 22.1936 38.6772 22.0309 39.5001 22.0309C42.298 22.0309 44.4376 24.1458 44.4376 26.9115C44.4376 27.7249 44.273 28.3757 43.9438 29.0264L50.5272 35.5339C51.1855 35.2085 51.8438 35.0459 52.6667 35.0459C55.4647 35.0459 57.6042 37.1608 57.6042 39.9265C57.6042 42.6922 55.4647 44.8071 52.6667 44.8071C49.8688 44.8071 47.7292 42.6922 47.7292 39.9265C47.7292 39.113 47.8938 38.4623 48.223 37.8115L41.6397 31.304C41.4751 31.304 41.3105 31.4667 41.1459 31.4667V48.3862C43.1209 49.0369 44.4376 50.8265 44.4376 52.9414C44.4376 55.7071 42.298 57.8221 39.5001 57.8221C36.7022 57.8221 34.5626 55.7071 34.5626 52.9414C34.5626 50.8265 35.8792 49.0369 37.8542 48.3862V31.304C35.8792 30.6533 34.5626 28.8637 34.5626 26.7488C34.5626 25.9354 34.7272 25.2846 35.0563 24.6339L28.3084 17.9637L9.54592 36.6727C8.723 37.4862 8.22925 38.625 8.22925 39.7638C8.22925 40.9026 8.723 42.0414 9.54592 42.8548L36.373 69.3729C37.1959 70.1863 38.348 70.6743 39.5001 70.6743C40.6522 70.6743 41.8042 70.1863 42.6272 69.3729L69.4542 42.8548C70.2772 42.0414 70.7709 40.9026 70.7709 39.7638C70.7709 38.625 70.2772 37.4862 69.4542 36.6727Z" fill="#F4511E"/>
</svg>
