<svg width="100" height="100" viewBox="0 0 100 100" fill="none" xmlns="http://www.w3.org/2000/svg">
<path d="M82.105 15.3018H15.895L21.737 80.75L49 88.4492L76.263 80.75L82.105 15.3018Z" fill="#FF6D00"/>
<path d="M49 89.4377C48.907 89.4377 48.815 89.4249 48.726 89.3992L21.463 81.6989C21.065 81.5862 20.777 81.2432 20.741 80.835L14.898 15.3878C14.874 15.112 14.967 14.8382 15.157 14.6336C15.347 14.4289 15.614 14.3133 15.895 14.3133H82.106C82.386 14.3133 82.654 14.4299 82.843 14.6345C83.032 14.8392 83.126 15.113 83.102 15.3888L77.259 80.836C77.223 81.2442 76.936 81.5872 76.537 81.6999L49.274 89.4001C49.185 89.4249 49.093 89.4377 49 89.4377ZM22.673 79.9859L49 87.4212L75.327 79.9859L81.014 16.2903H16.986L22.673 79.9859Z" fill="black"/>
<path d="M49 20.7384V82.4818L70.811 76.3226L75.709 20.7384H49Z" fill="#E65100"/>
<path d="M49 30.7013L48 34.5514L49 38.4006H66.332L66.916 30.7013H49Z" fill="#FEFDEF"/>
<path d="M49 53.8001H57.568L56.984 62.4631L49 65.1577L48 68.6797L49 73.2425L64.384 68.2378L65.747 46.1008H49L48 49.8986L49 53.8001Z" fill="#FEFDEF"/>
<path d="M49.0001 65.1577V73.2425L33.6161 68.2378L32.8371 57.6502H40.6261L41.0151 62.4621L49.0001 65.1577ZM39.4581 38.4006H49.0001V30.7013H31.2791L32.6421 53.8001H49.0001V46.1008H40.0421L39.4581 38.4006Z" fill="#EEECD9"/>
<path d="M66.576 78.0119C66.358 78.0119 66.158 77.8705 66.096 77.653C66.02 77.3911 66.173 77.1173 66.439 77.0422L70.343 75.94L75.163 21.2326H49.5V24.6923C49.5 24.9651 49.276 25.1865 49 25.1865C48.724 25.1865 48.5 24.9651 48.5 24.6923V20.7384C48.5 20.4656 48.724 20.2441 49 20.2441H75.709C75.85 20.2441 75.982 20.3025 76.077 20.4043C76.172 20.5061 76.22 20.6435 76.207 20.7809L71.309 76.3641C71.291 76.5687 71.148 76.7397 70.949 76.797L66.715 77.9931C66.668 78.0059 66.621 78.0119 66.576 78.0119Z" fill="#1F212B"/>
<path d="M61.537 79.4353C61.319 79.4353 61.119 79.294 61.057 79.0765C60.981 78.8136 61.135 78.5407 61.4 78.4656L63.394 77.9032C63.662 77.83 63.936 77.9813 64.012 78.2432C64.088 78.5061 63.934 78.779 63.669 78.8541L61.675 79.4165C61.629 79.4294 61.582 79.4353 61.537 79.4353Z" fill="#1F212B"/>
<path d="M49 82.976C48.893 82.976 48.787 82.9414 48.699 82.8762C48.573 82.7823 48.5 82.636 48.5 82.4818V73.2415C48.5 72.9687 48.724 72.7473 49 72.7473C49.276 72.7473 49.5 72.9687 49.5 73.2415V81.8264L58.31 79.3384C58.577 79.2653 58.853 79.4165 58.928 79.6785C59.004 79.9404 58.851 80.2142 58.585 80.2894L49.138 82.9573C49.092 82.9701 49.046 82.976 49 82.976Z" fill="#1F212B"/>
<path d="M49 65.6519C48.724 65.6519 48.5 65.4305 48.5 65.1577V56.7655C48.5 56.4927 48.724 56.2712 49 56.2712C49.276 56.2712 49.5 56.4927 49.5 56.7655V65.1577C49.5 65.4305 49.276 65.6519 49 65.6519Z" fill="#1F212B"/>
<path d="M49 46.595C48.724 46.595 48.5 46.3736 48.5 46.1008V41.367C48.5 41.0942 48.724 40.8727 49 40.8727C49.276 40.8727 49.5 41.0942 49.5 41.367V46.1008C49.5 46.3736 49.276 46.595 49 46.595Z" fill="#1F212B"/>
<path d="M49 73.7367C48.947 73.7367 48.895 73.7288 48.844 73.712L33.46 68.7073C33.268 68.6451 33.132 68.473 33.117 68.2734L32.338 57.6868C32.328 57.5504 32.376 57.4149 32.471 57.3151C32.566 57.2143 32.699 57.1569 32.837 57.1569H40.626C40.887 57.1569 41.104 57.3546 41.124 57.6116L41.488 62.1003L49 64.6358L56.508 62.1013L57.034 54.2953H32.643C32.378 54.2953 32.16 54.0907 32.144 53.8297L30.78 30.7299C30.772 30.5935 30.821 30.4611 30.916 30.3612C31.01 30.2624 31.142 30.2061 31.279 30.2061H66.916C67.055 30.2061 67.187 30.2634 67.282 30.3642C67.377 30.465 67.425 30.5995 67.415 30.7369L66.831 38.4371C66.811 38.6951 66.594 38.8938 66.332 38.8938H39.997L40.506 45.6046H65.747C65.885 45.6046 66.017 45.6609 66.111 45.7598C66.206 45.8596 66.255 45.9921 66.246 46.1285L64.883 68.2655C64.87 68.4681 64.735 68.6421 64.54 68.7053L49.156 73.71C49.105 73.7278 49.053 73.7367 49 73.7367ZM34.091 67.8721L49 72.7215L63.905 67.8721L65.216 46.5941H40.042C39.78 46.5941 39.563 46.3944 39.543 46.1374L38.959 38.4381C38.949 38.3007 38.997 38.1653 39.092 38.0655C39.187 37.9646 39.32 37.9073 39.458 37.9073H65.868L66.377 31.1955H31.81L33.115 53.3058H57.569C57.708 53.3058 57.84 53.3622 57.934 53.462C58.028 53.5618 58.077 53.6963 58.068 53.8327L57.484 62.4947C57.47 62.6934 57.338 62.8654 57.146 62.9297L49.162 65.6252C49.058 65.6608 48.943 65.6608 48.84 65.6252L40.856 62.9297C40.667 62.8664 40.535 62.6984 40.519 62.5016L40.165 58.1444H33.376L34.091 67.8721Z" fill="#1F212B"/>
<path d="M49 31.0186C48.724 31.0186 48.5 30.7972 48.5 30.5243V27.6578C48.5 27.3849 48.724 27.1635 49 27.1635C49.276 27.1635 49.5 27.3849 49.5 27.6578V30.5243C49.5 30.7972 49.276 31.0186 49 31.0186Z" fill="#1F212B"/>
</svg>
