<svg width="89" height="89" viewBox="0 0 89 89" fill="none" xmlns="http://www.w3.org/2000/svg">
<g clip-path="url(#clip0_44_1070)">
<path d="M88.5847 15.7594C88.3436 15.5633 88.0358 15.4606 87.7225 15.4735C86.864 15.4735 85.7533 16.049 85.1545 16.3587L84.9171 16.4778C83.914 16.958 82.8219 17.2293 81.7094 17.2751C80.5691 17.3118 79.5845 17.3777 78.3052 17.5097C70.7198 18.2813 67.3359 24.0272 64.0763 29.5861C62.3018 32.6102 60.4681 35.7498 57.9557 38.1489C57.4365 38.6474 56.884 39.1111 56.3018 39.5382C53.7022 41.448 50.437 42.8134 47.8968 43.7793C45.4512 44.703 42.7812 45.5333 40.202 46.3379C37.838 47.0728 35.6074 47.7693 33.5567 48.5208C32.6315 48.8598 31.8453 49.1201 31.15 49.3492C29.281 49.9485 27.933 50.4086 25.9639 51.7483C25.1963 52.267 24.4249 52.8279 23.9039 53.2476C22.3409 54.481 20.9576 55.9216 19.7932 57.5272C18.792 59.0099 17.635 60.3827 16.3408 61.6235C15.9254 62.0249 15.1875 62.2228 14.0824 62.2228C12.7919 62.2265 9.24117 61.2936 6.85856 61.2936C3.68423 61.2936 0.385667 62.4428 0 63.1264C0 63.1264 5.39748 66.5977 5.58846 66.7847C5.38265 67.0852 2.21758 71.3722 1.87642 72.3032C6.50071 72.4187 9.2115 71.7424 11.8073 70.5016C12.5601 70.1424 13.324 69.7721 14.2344 69.3927C15.7511 68.7421 17.3847 67.7047 19.1165 66.6069C21.3822 65.1461 23.7537 63.6469 26.0529 62.9229C27.9423 62.3529 29.9114 62.0799 31.888 62.1128C34.3151 62.1128 36.8701 62.4336 39.3343 62.7452C41.1699 62.9798 44.4889 63.0164 46.3542 63.1264C46.8529 63.1557 49.7658 63.1887 51.8165 63.1759C49.6138 67.9687 46.3542 72.2904 46.3542 72.2904C46.3542 72.2904 57.4792 72.2904 62.2036 61.695C62.2666 61.5722 62.3204 61.4457 62.3816 61.3229C65.3112 60.6319 72.8205 56.7171 74.8156 45.9182C75.7501 42.7804 76.4362 39.6646 77.0406 36.9209C77.7619 33.6219 78.3849 30.7939 79.0969 29.696C80.2168 27.975 81.9245 26.8112 83.5784 25.6803C83.8028 25.5282 84.0308 25.3798 84.2515 25.2185C86.33 23.7761 88.3955 22.1119 88.8517 19.0071V18.9356C89.1817 16.6208 88.9036 16.0288 88.5847 15.7594Z" fill="#006064"/>
</g>
<defs>
<clipPath id="clip0_44_1070">
<rect width="89" height="87.9747" fill="white" transform="translate(0 0.811005)"/>
</clipPath>
</defs>
</svg>
