<svg width="79" height="79" viewBox="0 0 79 79" fill="none" xmlns="http://www.w3.org/2000/svg">
<path d="M69.125 28.8868C69.125 62.2376 39.5 72.3242 39.5 72.3242C39.5 72.3242 9.875 62.2376 9.875 28.8868C9.875 24.8196 10.2042 21.4031 10.5333 18.6375C11.0271 14.5703 13.825 11.3165 17.775 10.3404C22.8771 8.87623 30.9417 7.24936 39.5 7.24936C48.0583 7.24936 56.1229 8.87623 61.3896 10.3404C65.3396 11.3165 68.1375 14.733 68.6313 18.6375C68.7958 21.4031 69.125 24.9823 69.125 28.8868Z" fill="#5D4037"/>
<path d="M39.5 12.13C47.5646 12.13 55.1354 13.7568 60.0729 15.0583C62.0479 15.5464 63.3646 17.1733 63.6938 19.2882C64.0229 22.3793 64.1875 25.633 64.1875 28.8868C64.1875 54.266 45.2604 64.5153 39.5 66.9556C33.7396 64.3526 14.8125 54.1033 14.8125 28.8868C14.8125 25.633 14.9771 22.3793 15.3063 19.2882C15.4708 17.1733 16.9521 15.5464 18.9271 15.0583C23.8646 13.7568 31.4354 12.13 39.5 12.13ZM39.5 7.24936C30.9417 7.24936 22.8771 8.87623 17.6104 10.3404C13.825 11.3165 10.8625 14.733 10.5333 18.6375C10.2042 21.4031 9.875 24.9823 9.875 28.8868C9.875 62.2376 39.5 72.3242 39.5 72.3242C39.5 72.3242 69.125 62.2376 69.125 28.8868C69.125 24.8196 68.7958 21.4031 68.4667 18.6375C67.9729 14.5703 65.175 11.3165 61.225 10.3404C56.1229 8.87623 48.0583 7.24936 39.5 7.24936Z" fill="#4CAF50"/>
<path d="M37.8541 46.2943H41.1458V59.3093H37.8541V46.2943Z" fill="#DCEDC8"/>
<path d="M39.5 17.0106C39.5 17.0106 29.625 25.145 29.625 38.1599C29.625 46.6197 35.0563 51.9883 37.8542 54.4286L39.5 49.548L41.1458 54.4286C43.9438 51.9883 49.375 46.6197 49.375 38.1599C49.375 25.145 39.5 17.0106 39.5 17.0106Z" fill="#4CAF50"/>
<path d="M39.5 17.0106C39.5 17.0106 29.625 25.145 29.625 38.1599C29.625 46.6197 35.0563 51.9883 37.8542 54.4286L39.5 49.548V17.0106Z" fill="#81C784"/>
</svg>
