<svg width="100" height="100" viewBox="0 0 100 100" fill="none" xmlns="http://www.w3.org/2000/svg">
<path d="M84.375 50C84.375 58.9844 80.9375 67.1563 75.3125 73.2813L75.0453 73.5734L67.1875 63.5094V32.8125H56.25V49.5094L43.2234 32.8125H32.8125V67.1875H43.75V50.9219L66.6562 80.0781C61.7344 82.8125 56.0469 84.375 50 84.375C31.0156 84.375 15.625 68.9844 15.625 50C15.625 31.0156 31.0156 15.625 50 15.625C68.9844 15.625 84.375 31.0156 84.375 50Z" fill="url(#paint0_linear_91_117)"/>
<path d="M50 90.625C27.5984 90.625 9.375 72.4 9.375 50C9.375 27.6 27.5984 9.375 50 9.375C72.4016 9.375 90.625 27.6 90.625 50C90.625 72.4 72.4016 90.625 50 90.625ZM50 12.5C29.3234 12.5 12.5 29.3234 12.5 50C12.5 70.6766 29.3234 87.5 50 87.5C70.6766 87.5 87.5 70.6766 87.5 50C87.5 29.3234 70.6766 12.5 50 12.5ZM64.0625 64.5875V35.9375H59.375V58.5875L41.6922 35.9375H35.9375V64.0625H40.625V41.8906L69.3281 78.4375C70.5328 77.6203 71.6859 76.7234 72.7844 75.7594L64.0625 64.5875Z" fill="url(#paint1_linear_91_117)"/>
<defs>
<linearGradient id="paint0_linear_91_117" x1="50" y1="84.375" x2="50" y2="15.625" gradientUnits="userSpaceOnUse">
<stop stop-color="#E6ABFF"/>
<stop offset="1" stop-color="#6DC7FF"/>
</linearGradient>
<linearGradient id="paint1_linear_91_117" x1="50" y1="90.625" x2="50" y2="9.375" gradientUnits="userSpaceOnUse">
<stop stop-color="#C822FF"/>
<stop offset="1" stop-color="#1A6DFF"/>
</linearGradient>
</defs>
</svg>
