<svg width="120" height="120" viewBox="0 0 120 120" fill="none" xmlns="http://www.w3.org/2000/svg">
<path d="M43.01 47.9316L30.7425 54.6409C30.2825 54.8905 30 55.3551 30 55.8567V69.2827C30 69.7844 30.2825 70.2465 30.7425 70.4986L43.0125 77.2128C43.47 77.4624 44.0375 77.4624 44.495 77.2128L56.7625 70.4986C57.2175 70.2465 57.5 69.7844 57.5 69.2827V55.8567C57.5 55.3551 57.2175 54.893 56.7575 54.6409L44.4925 47.9316C44.2625 47.8056 44.005 47.7438 43.75 47.7438C43.4925 47.7438 43.2375 47.8056 43.0075 47.9316M106.127 60.0182L104.082 61.1352C104.005 61.1772 103.96 61.2538 103.96 61.3378V63.5767C103.96 63.6608 104.007 63.7374 104.082 63.7794L106.127 64.8988C106.205 64.9408 106.297 64.9408 106.375 64.8988L108.42 63.7794C108.495 63.7374 108.542 63.6608 108.542 63.5767V61.3378C108.542 61.2538 108.495 61.1772 108.417 61.1352L106.372 60.0182C106.335 59.996 106.292 59.9861 106.25 59.9861C106.207 59.9861 106.165 59.996 106.127 60.0182Z" fill="#388E3C"/>
<path d="M89.3775 33.7025L83.405 30.4084C83.2175 30.3046 82.9875 30.3071 82.8025 30.4158C82.6175 30.5245 82.5025 30.7197 82.5025 30.9323L82.5 50.8303L76.9925 47.818C76.7625 47.6919 76.505 47.6301 76.25 47.6301C75.995 47.6301 75.7375 47.6919 75.5075 47.818H75.51L63.2425 54.5273C62.7825 54.7769 62.5 55.2414 62.5 55.7406V69.1666C62.5 69.6683 62.7825 70.1304 63.2425 70.3825L75.5125 77.0967C75.97 77.3463 76.5375 77.3463 76.995 77.0967L89.2625 70.3825C89.7175 70.1329 90 69.6683 90 69.1666V34.7503C90 34.3153 89.76 33.915 89.3775 33.7025ZM82.165 66.0603L76.59 69.1123C76.3825 69.2259 76.125 69.2259 75.9175 69.1123L70.34 66.0603C70.1275 65.9467 70 65.7341 70 65.5068V59.4029C70 59.1756 70.1275 58.9655 70.3375 58.8494L75.915 55.7999C76.02 55.7431 76.1325 55.7159 76.25 55.7159C76.3675 55.7159 76.4825 55.7456 76.5875 55.7999L82.1625 58.8494C82.3725 58.9655 82.5 59.1781 82.5 59.4054V65.5093C82.5 65.7341 82.3725 65.9467 82.165 66.0603Z" fill="#37474F"/>
<path d="M43.01 47.9316L30 69.2827C30 69.7844 30.2825 70.2465 30.7425 70.4986L43.0125 77.2128C43.47 77.4624 44.0375 77.4624 44.495 77.2128L57.5 55.8567C57.5 55.3551 57.2175 54.893 56.7575 54.6409L44.4925 47.9316C44.2625 47.8056 44.005 47.7438 43.75 47.7438C43.4925 47.7438 43.2375 47.8056 43.0075 47.9316" fill="#2E7D32"/>
<path d="M43.01 47.9316L30.7425 54.6409C30.2825 54.8905 30 55.3551 30 55.8567L43.01 77.2128C43.4675 77.4624 44.035 77.4624 44.4925 77.2128L56.76 70.4986C57.2175 70.2465 57.5 69.7844 57.5 69.2827L44.4925 47.9316C44.2625 47.8056 44.005 47.7438 43.75 47.7438C43.4925 47.7438 43.2375 47.8056 43.0075 47.9316" fill="#4CAF50"/>
<path d="M119.257 54.5272L106.993 47.8179C106.763 47.6919 106.505 47.6301 106.25 47.6301C105.995 47.6301 105.737 47.6919 105.507 47.8179L93.2425 54.5272C92.785 54.7768 92.5 55.2513 92.5 55.7703V69.1419C92.5 69.6584 92.785 70.1353 93.2425 70.3849L105.513 77.0992C105.973 77.3512 106.535 77.3512 106.995 77.0992L112.653 74.0028C113.17 73.7186 113.167 72.9846 112.647 72.7029L100.337 66.0628C100.13 65.9466 100 65.7317 100 65.4994V59.4054C100 59.178 100.125 58.968 100.325 58.8593L105.913 55.8049H105.91C106.015 55.748 106.13 55.7208 106.247 55.7208C106.365 55.7208 106.48 55.7505 106.585 55.8049L112.173 58.8617C112.372 58.9705 112.497 59.1805 112.497 59.4079V64.3799C112.497 64.5924 112.612 64.7901 112.8 64.8964C112.987 65.0002 113.217 65.0002 113.405 64.8939L119.4 61.4515C119.77 61.239 120 60.8461 120 60.4211V55.7752C120 55.2538 119.715 54.7768 119.257 54.5272ZM26.7575 54.5272L14.4925 47.8179C14.2625 47.6919 14.005 47.6301 13.75 47.6301C13.495 47.6301 13.2375 47.6919 13.0075 47.8179L0.7425 54.5272C0.285 54.7768 0 55.2513 0 55.7703V74.2177C0 74.4303 0.115 74.628 0.3025 74.7342C0.49 74.838 0.72 74.838 0.9075 74.7318L6.9025 71.2894C7.2725 71.0769 7.5 70.6839 7.5 70.2589V59.4029C7.5 59.1756 7.625 58.9655 7.825 58.8568L13.4125 55.8024C13.5175 55.7455 13.6325 55.7184 13.75 55.7184C13.8675 55.7184 13.9825 55.748 14.0875 55.8024L19.675 58.8593C19.875 58.968 20 59.178 20 59.4054V70.2614C20 70.6864 20.2275 71.0793 20.6 71.2919L26.595 74.7342C26.7825 74.8405 27.0125 74.8405 27.2 74.7367C27.385 74.628 27.5 74.4303 27.5 74.2177V55.7727C27.5 55.2538 27.215 54.7768 26.7575 54.5272Z" fill="#37474F"/>
</svg>
