<svg width="94" height="94" viewBox="0 0 94 94" fill="none" xmlns="http://www.w3.org/2000/svg">
<path d="M47 20.7426C21.8538 20.7426 1.46875 32.5558 1.46875 47.1282C1.46875 61.7005 21.8538 73.5137 47 73.5137C72.1462 73.5137 92.5312 61.7005 92.5312 47.1282C92.5312 32.5558 72.1462 20.7426 47 20.7426Z" fill="#8B75A1"/>
<path d="M47 20.7426C21.8535 20.7426 1.46875 32.5561 1.46875 47.1282C1.46875 61.7002 21.8535 73.5137 47 73.5137C72.1465 73.5137 92.5312 61.7002 92.5312 47.1282C92.5312 32.5561 72.1465 20.7426 47 20.7426ZM47 66.2545C24.4958 66.2545 8.8125 56.176 8.8125 47.1282C8.8125 38.0818 24.4958 28.0018 47 28.0018C69.5042 28.0018 85.1875 38.0818 85.1875 47.1282C85.1875 56.1745 69.5042 66.2545 47 66.2545Z" fill="#8B75A1"/>
<path d="M62.3263 38.7961L58.3122 60.3209H63.5498L64.5926 54.4512H67.8518C74.6741 54.4512 78.3856 52.889 79.7736 47.102C80.9677 42.1295 77.9171 38.7976 72.8852 38.7976H62.3263V38.7961ZM68.7169 50.537H65.3314L66.8266 42.7102H70.9068C74.2878 42.7102 74.9987 44.2172 74.8224 45.8941C74.3686 50.2104 71.6455 50.537 68.7169 50.537ZM20.7534 38.7961L16.7393 60.3209H21.9768L23.0196 54.4512H26.2788C33.1011 54.4512 36.8127 52.889 38.2006 47.102C39.3947 42.1295 36.3441 38.7976 31.3122 38.7976H20.7534V38.7961ZM27.1439 50.537H23.7584L25.2536 42.7102H29.3338C32.7149 42.7102 33.4257 44.2172 33.2495 45.8941C32.7956 50.2104 30.074 50.537 27.1439 50.537ZM57.7379 40.2189C56.6188 39.2055 54.6477 38.7961 51.7087 38.7961H47.0778L48.7286 30.9693H43.5337L38.5708 54.4512H43.7672L46.2729 42.7102H50.4265C51.7513 42.7102 52.6252 42.9295 53.0335 43.3621C53.4389 43.7991 53.5285 44.6208 53.2935 45.8099L51.3974 54.4512H56.6746L58.7294 45.1014C59.17 42.8598 58.8366 41.2163 57.7379 40.2189Z" fill="black"/>
<path d="M47 74.9655C21.0839 74.9655 0 62.4769 0 47.1281C0 31.7794 21.0839 19.2908 47 19.2908C72.9161 19.2908 94 31.7794 94 47.1281C94 62.4769 72.9161 74.9655 47 74.9655ZM47 22.1944C22.7039 22.1944 2.9375 33.3793 2.9375 47.1281C2.9375 60.877 22.7039 72.0619 47 72.0619C71.2961 72.0619 91.0625 60.877 91.0625 47.1281C91.0625 33.3793 71.2961 22.1944 47 22.1944ZM86.2053 73.9768C85.7207 73.9768 85.2462 73.7402 84.9642 73.3046L83.3868 70.8554C82.9506 70.1788 83.1533 69.2816 83.8377 68.8504C84.5192 68.4207 85.4284 68.6181 85.8661 69.2961L87.4435 71.7454C87.8797 72.4219 87.677 73.3191 86.9926 73.7503C86.7488 73.9028 86.4756 73.9768 86.2053 73.9768ZM79.9676 77.3697C79.4168 77.3697 78.8895 77.062 78.6383 76.5378L77.384 73.9115C77.0389 73.187 77.3532 72.3203 78.0861 71.9791C78.8219 71.635 79.6944 71.9486 80.041 72.6731L81.2953 75.2994C81.6405 76.0239 81.3262 76.8906 80.5933 77.2318C80.3906 77.3262 80.1776 77.3697 79.9676 77.3697ZM73.392 80.0019C72.7839 80.0019 72.214 79.6244 72.004 79.0248L71.0434 76.2794C70.7776 75.5216 71.1859 74.694 71.9511 74.4327C72.7163 74.1714 73.5535 74.5735 73.8194 75.3299L74.7799 78.0753C75.0458 78.8332 74.6375 79.6607 73.8723 79.9221C73.7136 79.9772 73.5506 80.0019 73.392 80.0019ZM66.599 81.9677C65.9366 81.9677 65.3359 81.5205 65.1728 80.8556L64.4825 78.0332C64.2916 77.255 64.7763 76.4696 65.565 76.2823C66.342 76.0921 67.1454 76.5727 67.3363 77.3523L68.0266 80.1747C68.2176 80.9529 67.7329 81.7383 66.9442 81.9256C66.8296 81.9546 66.7136 81.9677 66.599 81.9677ZM59.6621 83.3063C58.9468 83.3063 58.3197 82.7894 58.211 82.0679L57.7762 79.1947C57.6573 78.402 58.2095 77.663 59.0129 77.544C59.8237 77.4365 60.5639 77.9737 60.6829 78.7664L61.1176 81.6396C61.2366 82.4323 60.6843 83.1712 59.8809 83.2903C59.8075 83.3005 59.7341 83.3063 59.6621 83.3063ZM52.6415 84.0365C51.8748 84.0365 51.2271 83.4471 51.1771 82.6776L50.9877 79.7798C50.9362 78.9798 51.5502 78.2902 52.3595 78.2365C53.1585 78.1973 53.8679 78.7925 53.9208 79.5925L54.1102 82.4903C54.1616 83.2903 53.5477 83.9799 52.7384 84.0336C52.7061 84.0351 52.6723 84.0365 52.6415 84.0365Z" fill="black"/>
<path d="M32.1098 31.1391C31.4518 31.1391 30.8526 30.6978 30.6852 30.0372C30.4898 29.259 30.9701 28.4707 31.7559 28.2776C33.7313 27.7927 35.8184 27.3803 37.9599 27.0508C38.7633 26.9288 39.5123 27.4704 39.6372 28.2616C39.762 29.0543 39.2127 29.7962 38.4122 29.9196C36.356 30.2361 34.3556 30.631 32.4653 31.0956C32.3463 31.1261 32.2273 31.1391 32.1098 31.1391Z" fill="black"/>
<path d="M10.2799 43.9675C10.0405 43.9675 9.79814 43.9095 9.57342 43.7875C8.86695 43.4013 8.60552 42.5259 8.9918 41.8246C9.15189 41.5343 13.0558 34.6744 25.7708 30.0779C26.5287 29.8006 27.3747 30.1897 27.6537 30.9432C27.9328 31.6967 27.5406 32.53 26.7784 32.8044C15.1987 36.99 11.6003 43.1603 11.5665 43.2213C11.2977 43.6989 10.7954 43.9675 10.2799 43.9675Z" fill="black"/>
</svg>
