<svg width="100" height="100" viewBox="0 0 100 100" fill="none" xmlns="http://www.w3.org/2000/svg">
<path d="M78 15.2903C78.5523 15.2903 79 14.8477 79 14.3018C79 13.7559 78.5523 13.3133 78 13.3133C77.4477 13.3133 77 13.7559 77 14.3018C77 14.8477 77.4477 15.2903 78 15.2903Z" fill="#F1BC19"/>
<path d="M50 87.4492C70.9868 87.4492 88 70.6321 88 49.887C88 29.142 70.9868 12.3248 50 12.3248C29.0132 12.3248 12 29.142 12 49.887C12 70.6321 29.0132 87.4492 50 87.4492Z" fill="#F9DBD2"/>
<path d="M84 20.2327C86.2091 20.2327 88 18.4624 88 16.2787C88 14.0951 86.2091 12.3248 84 12.3248C81.7909 12.3248 80 14.0951 80 16.2787C80 18.4624 81.7909 20.2327 84 20.2327Z" fill="#F1BC19"/>
<path d="M14 28.1405C15.1046 28.1405 16 27.2554 16 26.1635C16 25.0717 15.1046 24.1866 14 24.1866C12.8954 24.1866 12 25.0717 12 26.1635C12 27.2554 12.8954 28.1405 14 28.1405Z" fill="#EE3E54"/>
<path d="M78 78.5529C79.1046 78.5529 80 77.6678 80 76.576C80 75.4841 79.1046 74.599 78 74.599C76.8954 74.599 76 75.4841 76 76.576C76 77.6678 76.8954 78.5529 78 78.5529Z" fill="#FBCD59"/>
<path d="M17 81.5184C19.2091 81.5184 21 79.7481 21 77.5645C21 75.3808 19.2091 73.6105 17 73.6105C14.7909 73.6105 13 75.3808 13 77.5645C13 79.7481 14.7909 81.5184 17 81.5184Z" fill="#FBCD59"/>
<path d="M24 84.4838C25.1046 84.4838 26 83.5987 26 82.5069C26 81.415 25.1046 80.5299 24 80.5299C22.8954 80.5299 22 81.415 22 82.5069C22 83.5987 22.8954 84.4838 24 84.4838Z" fill="#EE3E54"/>
<path d="M66.5 80.5299C67.8807 80.5299 69 79.4235 69 78.0587C69 76.6939 67.8807 75.5875 66.5 75.5875C65.1193 75.5875 64 76.6939 64 78.0587C64 79.4235 65.1193 80.5299 66.5 80.5299Z" fill="white"/>
<path d="M16 48.8985C16.5523 48.8985 17 48.456 17 47.91C17 47.3641 16.5523 46.9216 16 46.9216C15.4477 46.9216 15 47.3641 15 47.91C15 48.456 15.4477 48.8985 16 48.8985Z" fill="white"/>
<path d="M86 32.0944C86.5523 32.0944 87 31.6518 87 31.1059C87 30.56 86.5523 30.1174 86 30.1174C85.4477 30.1174 85 30.56 85 31.1059C85 31.6518 85.4477 32.0944 86 32.0944Z" fill="#F1BC19"/>
<path d="M80 67.6797C81.1046 67.6797 82 66.7946 82 65.7027C82 64.6109 81.1046 63.7258 80 63.7258C78.8954 63.7258 78 64.6109 78 65.7027C78 66.7946 78.8954 67.6797 80 67.6797Z" fill="white"/>
<path d="M50 62.7373C34 62.7373 22 57.2018 22 49.887C22 42.5723 34 37.0368 50 37.0368C66 37.0368 78 42.5723 78 49.887C78 57.2018 66 62.7373 50 62.7373ZM50 40.8919C35.7 40.8919 25.7 45.6366 25.7 49.887C25.7 54.1375 35.7 58.8822 50 58.8822C64.3 58.8822 74.3 54.1375 74.3 49.887C74.3 45.6366 64.3 40.8919 50 40.8919Z" fill="#77CBD2"/>
<path d="M50 63.4292C33.6 63.4292 21.3 57.5972 21.3 49.887C21.3 42.1769 33.6 36.3448 50 36.3448C66.4 36.3448 78.7 42.1769 78.7 49.887C78.7 57.5972 66.4 63.4292 50 63.4292ZM50 37.7287C34.4 37.7287 22.7001 42.9677 22.7001 49.887C22.7001 56.8064 34.4 62.0453 50 62.0453C65.6001 62.0453 77.3001 56.8064 77.3001 49.887C77.3001 42.9677 65.6001 37.7287 50 37.7287ZM50 59.5741C35.1 59.5741 25 54.5329 25 49.887C25 45.2412 35 40.1999 50 40.1999C65 40.1999 75 45.2412 75 49.887C75 54.5329 64.9 59.5741 50 59.5741ZM50 41.5838C35.4 41.5838 26.4 46.4273 26.4 49.887C26.4 53.3467 35.4 58.1902 50 58.1902C64.6001 58.1902 73.6 53.3467 73.6 49.887C73.6 46.4273 64.6001 41.5838 50 41.5838Z" fill="#472B29"/>
<path d="M39.5 74.7967C38.2 74.7967 37.1 74.5002 36.1 73.9071C30 70.3485 31.3 57.3995 39.2 43.6596C44.7 34.0714 52.1 26.8555 58.1 25.2739C60.3 24.6808 62.3 24.8785 63.9 25.7681C70 29.3267 68.7 42.2757 60.8 56.0156C55.3 65.6038 47.9 72.8197 41.9 74.4013C41.1 74.6979 40.3 74.7967 39.5 74.7967ZM60.5 28.6347C60.1 28.6347 59.6 28.7336 59 28.8324C54.1 30.1174 47.4 36.8391 42.4 45.4389C35.5 57.3995 34.4 68.5693 37.9 70.6451C38.6 71.0405 39.6 71.1393 40.9 70.8428C45.8 69.5578 52.5 62.8361 57.5 54.2363C64.4 42.2757 65.5 31.1059 62 29.0301C61.6 28.8324 61.1 28.6347 60.5 28.6347Z" fill="#77CBD2"/>
<path d="M39.4999 75.4886C38.0999 75.4886 36.7999 75.1921 35.6999 74.5002C29.1999 70.7439 30.3999 57.3006 38.4999 43.2642C44.0999 33.4783 51.6999 26.1635 57.7999 24.582C60.1999 23.9889 62.3999 24.1866 64.1999 25.1751C70.6999 28.9313 69.4999 42.3746 61.3999 56.411C55.7999 66.1969 48.1999 73.5117 42.0999 75.0933C41.1999 75.3898 40.3999 75.4886 39.4999 75.4886ZM60.4999 25.6693C59.7999 25.6693 58.9999 25.7681 58.2999 25.9658C52.4999 27.4486 45.2999 34.5656 39.8999 43.9562C32.2999 57.1029 30.8999 69.9532 36.5999 73.314C37.9999 74.1048 39.8999 74.3025 41.8999 73.8082C47.6999 72.3255 54.8999 65.2085 60.2999 55.8179C67.8999 42.6711 69.3999 29.8209 63.5999 26.5589C62.5999 25.9658 61.5999 25.6693 60.4999 25.6693ZM39.4999 71.8313C38.7999 71.8313 38.1999 71.6336 37.5999 71.337C33.1999 68.8658 35.1999 56.6087 41.7999 45.1423C46.8999 36.3449 53.6999 29.5244 58.7999 28.2393C60.1999 27.8439 61.3999 27.9428 62.2999 28.437C66.6999 30.9082 64.6999 43.1654 58.0999 54.6317C52.9999 63.4292 46.1999 70.2497 41.0999 71.5347C40.5999 71.7324 39.9999 71.8313 39.4999 71.8313ZM60.4999 29.3267C60.0999 29.3267 59.6999 29.4255 59.1999 29.5244C54.3999 30.8094 47.8999 37.3333 42.9999 45.8343C35.8999 58.1903 35.3999 68.4704 38.2999 70.1509C38.8999 70.4474 39.6999 70.5462 40.6999 70.2497C45.4999 68.9647 51.9999 62.4407 56.8999 53.9398C63.9999 41.5838 64.4999 31.3036 61.5999 29.6232C61.2999 29.4255 60.8999 29.3267 60.4999 29.3267Z" fill="#472B29"/>
<path d="M60.5 74.7967C59.7 74.7967 58.9 74.6979 58.1 74.5002C52.2 72.9186 44.8 65.7027 39.2 56.1145C31.3 42.3746 30 29.4255 36.1 25.867C37.7 24.9774 39.7 24.7797 41.9 25.3728C47.8 26.9543 55.2 34.1702 60.8 43.7585C68.7 57.4983 70 70.4474 63.9 74.0059C62.9 74.5002 61.7 74.7967 60.5 74.7967ZM39.5 28.6347C38.9 28.6347 38.4 28.7336 38 29.0301C34.4 31.1059 35.6 42.3746 42.5 54.2364C47.5 62.8361 54.1 69.5578 59.1 70.8428C60.3 71.1394 61.3 71.1394 62.1 70.6451C65.7 68.5693 64.5 57.3006 57.6 45.4389C52.6 36.8391 46 30.1175 41 28.8324C40.4 28.7336 40 28.6347 39.5 28.6347Z" fill="#77CBD2"/>
<path d="M60.5 75.4886C59.7 75.4886 58.8 75.3898 57.9 75.0932C51.8 73.5117 44.2 66.0981 38.6 56.411C30.5 42.3746 29.3 28.9312 35.8 25.175C37.6 24.1865 39.8 23.89 42.2 24.5819C48.3 26.1635 55.9 33.5771 61.5 43.2642C69.6 57.3006 70.8 70.7439 64.3 74.5001C63.1 75.1921 61.9 75.4886 60.5 75.4886ZM39.5 25.6693C38.4 25.6693 37.3 25.9658 36.4 26.46C30.7 29.722 32.2 42.6711 39.7 55.719C45.1 65.1096 52.4 72.2266 58.1 73.7094C60.1 74.2036 61.9 74.1047 63.4 73.2151C69.1 69.9531 67.6 57.0041 60.1 43.8573C54.7 34.4667 47.4 27.3497 41.7 25.867C41 25.7681 40.2 25.6693 39.5 25.6693ZM60.5 71.8312C60 71.8312 59.5 71.7324 58.9 71.6335C53.8 70.2497 47 63.4292 41.9 54.7306C35.3 43.2642 33.3 31.1059 37.7 28.5359C38.6 28.0416 39.8 27.9428 41.2 28.3382C46.3 29.722 53.1 36.5425 58.2 45.2412C64.8 56.7075 66.8 68.8658 62.4 71.4359C61.8 71.6336 61.2 71.8312 60.5 71.8312ZM39.5 29.3266C39 29.3266 38.6 29.4255 38.3 29.6232C35.5 31.3036 35.9 41.5838 43 53.9398C47.9 62.4407 54.4 68.9647 59.2 70.2497C60.2 70.5462 61.1 70.4474 61.6 70.1508C64.4 68.4704 64 58.1902 56.9 45.8342C52 37.3333 45.6 30.8094 40.8 29.5243C40.3 29.4255 39.9 29.3266 39.5 29.3266Z" fill="#472B29"/>
<path d="M50 55.3237C53.0376 55.3237 55.5 52.8896 55.5 49.8871C55.5 46.8845 53.0376 44.4504 50 44.4504C46.9624 44.4504 44.5 46.8845 44.5 49.8871C44.5 52.8896 46.9624 55.3237 50 55.3237Z" fill="#77CBD2"/>
<path d="M50 55.8179C46.7 55.8179 44 53.149 44 49.8871C44 46.6251 46.7 43.9562 50 43.9562C53.3 43.9562 56 46.6251 56 49.8871C56 53.149 53.3 55.8179 50 55.8179ZM50 44.9447C47.2 44.9447 45 47.1193 45 49.8871C45 52.6548 47.2 54.8294 50 54.8294C52.8 54.8294 55 52.6548 55 49.8871C55 47.1193 52.8 44.9447 50 44.9447Z" fill="#472B29"/>
<path d="M50 53.6433C49.9 53.6433 49.7 53.5444 49.7 53.3467C49.7 53.149 49.8 53.0502 50 53.0502C50.4 53.0502 50.6999 52.9513 51.0999 52.8525C51.5999 52.6548 52 52.3582 52.4 52.0617C52.5 51.9628 52.6999 51.9628 52.7999 52.0617C52.8999 52.1605 52.8999 52.3582 52.7999 52.4571C52.3999 52.8525 51.8999 53.2479 51.2999 53.4456C50.8999 53.5444 50.4 53.6433 50 53.6433Z" fill="#472B29"/>
<path d="M53.1 51.6663H53C52.9 51.5675 52.8 51.4686 52.9 51.3698C53.1 50.9744 53.2 50.4801 53.2 49.9859C53.2 48.7009 52.5 47.6136 51.4 47.1193C51.3 47.0205 51.2 46.9216 51.3 46.8228C51.4 46.7239 51.5 46.6251 51.6 46.7239C52.9 47.317 53.7 48.602 53.7 50.0848C53.7 50.6778 53.6 51.1721 53.3 51.7652C53.3 51.5675 53.2 51.6663 53.1 51.6663Z" fill="#472B29"/>
<path d="M48.1001 47.2182C48.0001 47.2182 47.9001 47.2182 47.9001 47.1193C47.8001 47.0205 47.9001 46.8228 48.0001 46.8228C48.6001 46.4274 49.3001 46.2297 50.0001 46.2297C50.1001 46.2297 50.3001 46.3285 50.3001 46.5262C50.3001 46.7239 50.2001 46.8228 50.0001 46.8228C49.4001 46.8228 48.8001 47.0205 48.2001 47.317C48.2001 47.2182 48.2001 47.2182 48.1001 47.2182Z" fill="#472B29"/>
<path d="M53.5 36.8391C53.4 36.8391 53.4 36.8391 53.3 36.7403C49.6 32.1933 46.1 29.2278 42.9 27.9428C42.8 27.844 42.7 27.7451 42.8 27.6463C42.9 27.5474 43 27.4486 43.1 27.5474C46.4 28.9313 49.9 31.9956 53.7 36.5426C53.8 36.6414 53.8 36.8391 53.7 36.938C53.6 36.7403 53.6 36.8391 53.5 36.8391Z" fill="#472B29"/>
<path d="M36.5001 27.9428C36.4001 27.9428 36.4001 27.9428 36.3001 27.8439C36.2001 27.7451 36.2001 27.5474 36.3001 27.4485C36.6001 27.2508 38.2001 26.1635 41.1001 26.7566C41.2001 26.7566 41.3001 26.9543 41.3001 27.0532C41.3001 27.152 41.1001 27.2508 41.0001 27.2508C38.3001 26.6578 36.9001 27.6462 36.7001 27.8439C36.6001 27.8439 36.6001 27.9428 36.5001 27.9428Z" fill="#472B29"/>
<path d="M73.2999 55.3237C73.1999 55.3237 73.1999 55.3237 73.0999 55.2248C72.9999 55.126 72.9999 54.9283 73.0999 54.8294C75.3999 52.9513 76.2999 50.7767 75.7999 48.3055C75.7999 48.2066 75.8999 48.0089 75.9999 48.0089C76.0999 48.0089 76.2999 48.1078 76.2999 48.2066C76.8999 50.7767 75.8999 53.2479 73.3999 55.2248C73.3999 55.3237 73.2999 55.3237 73.2999 55.3237Z" fill="#472B29"/>
<path d="M69 57.696C68.9 57.696 68.8 57.5972 68.8 57.4983C68.8 57.3995 68.8 57.2018 69 57.2018C69 57.2018 70.4 56.7076 71.9 55.8179C72 55.7191 72.2 55.8179 72.2 55.9168C72.3 56.0156 72.2 56.2133 72.1 56.2133C70.5 57.2018 69.1 57.5972 69 57.696Z" fill="#472B29"/>
<path d="M39.1001 73.2152C36.4001 73.1163 34.7001 71.1394 34.1001 67.5808C34.1001 67.482 34.2001 67.2843 34.3001 67.2843C34.4001 67.2843 34.6001 67.3832 34.6001 67.482C35.2001 70.8428 36.7001 72.6221 39.1001 72.7209C39.2001 72.7209 39.3001 72.8198 39.3001 73.0175C39.4001 73.1163 39.3001 73.2152 39.1001 73.2152Z" fill="#472B29"/>
<path d="M34.0999 65.4061C33.9999 65.4061 33.8999 65.3073 33.7999 65.2084C33.6999 62.9349 33.9999 60.958 34.0999 60.6614C34.0999 60.5626 34.2999 60.4637 34.3999 60.4637C34.4999 60.4637 34.5999 60.6614 34.5999 60.7603C34.5999 60.8591 34.1999 62.8361 34.2999 65.1096C34.3999 65.3073 34.2999 65.4061 34.0999 65.4061Z" fill="#472B29"/>
</svg>
