<svg width="100" height="100" viewBox="0 0 100 100" fill="none" xmlns="http://www.w3.org/2000/svg">
<path d="M30.6399 36.5345C37.6819 28.0909 41.5879 23.4084 48.6299 23.4084C61.3939 23.4084 64.6999 33.2003 73.4969 39.6324C76.9999 42.1935 86.9799 44.979 90.5009 36.5345C86.9799 48.1451 79.9379 53.4226 72.8949 53.4226C67.7219 53.4226 60.9999 48.1244 54.8489 41.2841C47.2669 32.8544 34.1619 32.3127 30.6399 36.5345Z" fill="#31C4F3"/>
<path d="M9.49902 59.906C16.541 51.4625 20.447 46.78 27.489 46.78C40.253 46.78 43.848 56.2022 52.356 63.0039C56 65.917 65.838 68.3496 69.36 59.906C65.839 71.5167 58.796 76.7932 51.754 76.7932C46.581 76.7942 40 71.8479 33.707 64.6557C26.243 56.1241 13.02 55.6842 9.49902 59.906Z" fill="#31C4F3"/>
<path d="M72.8951 54.4101C66.6301 54.4101 59.2171 47.6292 54.1011 41.9405C49.3451 36.6521 42.6431 34.8303 37.9791 34.945C34.9811 35.0004 32.5271 35.8287 31.4141 37.1612L31.4131 37.1622C31.0611 37.5842 30.4311 37.6436 30.0051 37.2966C29.5791 36.9496 29.5171 36.3279 29.8691 35.9068C29.8701 35.9038 29.8721 35.9019 29.8741 35.8999C36.8851 27.4938 41.1191 22.42 48.6311 22.42C57.7891 22.42 62.2881 27.1973 67.0511 32.2563C69.1801 34.517 71.3821 36.8547 74.0931 38.8376C76.1161 40.3154 80.6651 41.9336 84.4501 40.8897C86.8141 40.2403 88.5391 38.6469 89.5771 36.1579C89.7801 35.6715 90.3361 35.4284 90.8361 35.6023C91.3381 35.7793 91.6121 36.3131 91.4601 36.8172C88.1181 47.8338 81.1781 54.4101 72.8951 54.4101ZM38.2931 32.9651C43.3931 32.9651 50.5061 34.9677 55.5961 40.6278C62.4421 48.241 68.5861 52.4332 72.8951 52.4332C78.7861 52.4332 83.9531 48.5475 87.3551 41.7902C86.6291 42.2232 85.8381 42.5602 84.9861 42.7945C80.3011 44.0835 75.0891 42.0255 72.9031 40.4261C70.0431 38.3355 67.7781 35.9285 65.5871 33.6026C60.9361 28.6622 56.9191 24.3969 48.6311 24.3969C43.1591 24.3969 39.6211 27.5423 34.6271 33.3476C35.6411 33.1203 36.7551 32.9908 37.9421 32.969C38.0581 32.9661 38.1751 32.9651 38.2931 32.9651Z" fill="#1F212B"/>
<path d="M51.7529 77.7827C46.6699 77.7827 39.9919 73.3514 32.9499 65.3032C28.3519 60.0474 21.7079 58.2266 17.0569 58.2869C13.9519 58.3225 11.4149 59.1627 10.2699 60.5328L10.2689 60.5337C9.91694 60.9568 9.28894 61.0151 8.86094 60.6682C8.43494 60.3202 8.37394 59.6985 8.72594 59.2774C8.72694 59.2754 8.72894 59.2734 8.72994 59.2715C15.7409 50.8654 19.9749 45.7916 27.4869 45.7916C36.9799 45.7916 41.6379 50.7676 46.5709 56.0352C48.5349 58.1337 50.5669 60.3024 52.9829 62.2339C55.1659 63.9796 59.4199 65.3496 62.9989 64.4432C65.5089 63.8096 67.3369 62.1568 68.4339 59.5275C68.6379 59.0402 69.1929 58.796 69.6929 58.9719C70.1949 59.1489 70.4689 59.6827 70.3169 60.1868C66.9769 71.2064 60.0369 77.7827 51.7529 77.7827ZM17.2569 56.308C22.3609 56.308 29.4899 58.3245 34.4639 64.0092C41.1199 71.6156 47.2609 75.8057 51.7539 75.8057C57.6179 75.8057 62.7649 71.9556 66.1679 65.2537C65.3559 65.745 64.4629 66.1167 63.4969 66.3598C59.2389 67.4363 54.3529 65.8715 51.7279 63.772C49.1999 61.7516 47.1189 59.5285 45.1059 57.3785C40.2779 52.2216 36.1079 47.7685 27.4899 47.7685C22.0229 47.7685 18.4859 50.9079 13.4989 56.7024C14.5749 56.4582 15.7649 56.3238 17.0359 56.31C17.1079 56.309 17.1829 56.308 17.2569 56.308Z" fill="#1F212B"/>
<path d="M59.424 69.4429C55.302 69.4429 51.067 66.9846 49.042 65.3644C46.861 63.6208 44.857 61.4333 42.918 59.3189C38.575 54.5782 34.473 50.1013 28.5 50.1013C28.224 50.1013 28 49.8799 28 49.6071C28 49.3343 28.224 49.1129 28.5 49.1129C34.916 49.1129 39.361 53.9633 43.659 58.6546C45.572 60.7423 47.55 62.9012 49.67 64.5964C51.818 66.3134 56.575 69.0386 60.793 68.3467C61.064 68.2982 61.322 68.4851 61.368 68.753C61.413 69.0218 61.229 69.2768 60.956 69.3213C60.451 69.4044 59.938 69.4429 59.424 69.4429Z" fill="black"/>
<path d="M19.4999 53.0667C19.3379 53.0667 19.1799 52.9896 19.0829 52.8463C18.9299 52.62 18.9919 52.3125 19.2219 52.1613C21.7349 50.5046 23.4819 49.6011 26.0579 49.2601C26.3309 49.2156 26.5829 49.4133 26.6199 49.6842C26.6569 49.955 26.4649 50.2031 26.1909 50.2397C23.8099 50.555 22.1629 51.412 19.7769 52.9837C19.6919 53.0401 19.5959 53.0667 19.4999 53.0667Z" fill="black"/>
<path d="M80.924 46.2137C76.802 46.2137 72.567 43.7553 70.542 42.1352C68.361 40.3915 66.357 38.204 64.418 36.0897C60.075 31.3489 55.973 26.8721 50 26.8721C49.724 26.8721 49.5 26.6507 49.5 26.3778C49.5 26.105 49.724 25.8836 50 25.8836C56.416 25.8836 60.861 30.7341 65.159 35.4254C67.072 37.5131 69.05 39.6719 71.17 41.3671C73.318 43.0841 78.077 45.8025 82.293 45.1174C82.566 45.065 82.823 45.2558 82.868 45.5237C82.913 45.7926 82.729 46.0476 82.456 46.0921C81.951 46.1751 81.438 46.2137 80.924 46.2137Z" fill="black"/>
<path d="M40.9999 29.8375C40.8379 29.8375 40.6799 29.7604 40.5829 29.6171C40.4299 29.3907 40.4919 29.0833 40.7219 28.9321C42.9619 27.4563 44.5909 26.5765 46.7789 26.1554C47.0519 26.11 47.3129 26.279 47.3649 26.5469C47.4179 26.8148 47.2399 27.0747 46.9689 27.1271C44.9469 27.5156 43.4079 28.3499 41.2759 29.7545C41.1919 29.8108 41.0959 29.8375 40.9999 29.8375Z" fill="black"/>
</svg>
