<svg width="100" height="99" viewBox="0 0 100 99" fill="none" xmlns="http://www.w3.org/2000/svg">
<path d="M12.5 52.4723H11.5C11.224 52.4723 11 52.2509 11 51.9781C11 51.7052 11.224 51.4838 11.5 51.4838H12.5C12.776 51.4838 13 51.7052 13 51.9781C13 52.2509 12.777 52.4723 12.5 52.4723Z" fill="white"/>
<path d="M9.5 52.4723H7.5C7.224 52.4723 7 52.2509 7 51.9781C7 51.7052 7.224 51.4838 7.5 51.4838H9.5C9.776 51.4838 10 51.7052 10 51.9781C10 52.2509 9.777 52.4723 9.5 52.4723Z" fill="white"/>
<path d="M87.215 56.1395C88.35 54.0094 89 51.5876 89 49.0126C89 42.4679 84.841 36.8968 78.999 34.7014C78.999 34.6945 79 34.6876 79 34.6797C79 23.2153 69.598 13.9216 58 13.9216C48.216 13.9216 40.019 20.5454 37.687 29.4971C36.211 29.0177 34.638 28.7488 33 28.7488C25.308 28.7488 18.977 34.475 18.11 41.8481C12.906 42.9364 9 47.4992 9 52.9665C9 59.2444 14.149 64.334 20.5 64.334C20.677 64.334 20.852 64.3222 21.026 64.3123C21.022 64.4853 21 64.6543 21 64.8283C21 76.0198 30.178 85.0921 41.5 85.0921C47.937 85.0921 53.675 82.1543 57.434 77.5658C59.612 79.7652 62.64 81.1382 66 81.1382C70.65 81.1382 74.674 78.5187 76.666 74.6953C77.718 75.0264 78.837 75.2073 80 75.2073C86.075 75.2073 91 70.3391 91 64.334C91 61.0612 89.53 58.1333 87.215 56.1395Z" fill="#C7EDE6"/>
<path d="M35.25 70.2649C35.112 70.2649 35 70.1542 35 70.0178C35 68.8089 35.995 67.8253 37.218 67.8253C37.252 67.8342 37.955 67.8244 38.462 67.9598C38.595 67.9954 38.674 68.1308 38.638 68.2623C38.602 68.3947 38.465 68.4728 38.332 68.4362C37.888 68.3176 37.232 68.3176 37.219 68.3196C36.271 68.3196 35.5 69.0817 35.5 70.0178C35.5 70.1542 35.388 70.2649 35.25 70.2649Z" fill="#472B29"/>
<path d="M33.5 74.7131C33.5 74.7131 35.067 74.7131 37 74.7131C38.933 74.7131 40.5 73.1641 40.5 71.2534C40.5 69.4929 39.165 68.0566 37.445 67.8382C37.473 67.6613 37.5 67.4843 37.5 67.2995C37.5 65.3887 35.933 63.8398 34 63.8398C32.968 63.8398 32.05 64.2896 31.41 64.9914C31.026 63.2042 29.423 61.8628 27.5 61.8628C25.291 61.8628 23.5 63.6332 23.5 65.8168C23.5 66.0056 23.53 66.1864 23.556 66.3683C23.128 66.0283 22.592 65.8168 22 65.8168C20.772 65.8168 19.755 66.6935 19.545 67.8481C19.366 67.8204 19.187 67.7937 19 67.7937C17.067 67.7937 15.5 69.3427 15.5 71.2534C15.5 73.1641 17.067 74.7131 19 74.7131C20.933 74.7131 26.5 74.7131 26.5 74.7131V75.2073H33.5V74.7131Z" fill="#FDFCEF"/>
<path d="M28.5 75.2073C28.7761 75.2073 29 74.986 29 74.7131C29 74.4401 28.7761 74.2188 28.5 74.2188C28.2239 74.2188 28 74.4401 28 74.7131C28 74.986 28.2239 75.2073 28.5 75.2073Z" fill="#472B29"/>
<path d="M41 71.2534C41 73.434 39.206 75.2073 37 75.2073H33.5C33.224 75.2073 33 74.9859 33 74.7131C33 74.4402 33.224 74.2188 33.5 74.2188H37C38.654 74.2188 40 72.8883 40 71.2534C40 69.7746 38.875 68.5173 37.382 68.3285C37.248 68.3107 37.127 68.2415 37.046 68.1347C36.965 68.028 36.931 67.8935 36.952 67.7621C36.975 67.6099 37 67.4576 37 67.2995C37 65.6645 35.654 64.334 34 64.334C33.15 64.334 32.362 64.6849 31.781 65.3225C31.656 65.4599 31.46 65.5182 31.281 65.4688C31.099 65.4204 30.96 65.276 30.921 65.0942C30.58 63.5086 29.141 62.3571 27.5 62.3571C25.57 62.3571 24 63.909 24 65.8167C24 65.9581 24.021 66.0935 24.041 66.2299C24.07 66.4306 23.978 66.6629 23.799 66.7637C23.62 66.8645 23.403 66.8803 23.243 66.7538C22.878 66.4642 22.449 66.311 22 66.311C21.034 66.311 20.208 66.994 20.037 67.936C19.989 68.2 19.741 68.3769 19.468 68.3364C19.314 68.3127 19.16 68.2879 19 68.2879C17.346 68.2879 16 69.6184 16 71.2534C16 72.8883 17.346 74.2188 19 74.2188H26.5C26.776 74.2188 27 74.4402 27 74.7131C27 74.9859 26.776 75.2073 26.5 75.2073H19C16.794 75.2073 15 73.434 15 71.2534C15 69.0728 16.794 67.2995 19 67.2995C19.059 67.2995 19.116 67.3014 19.174 67.3054C19.588 66.1331 20.711 65.3225 22 65.3225C22.349 65.3225 22.689 65.3828 23.011 65.5004C23.176 63.1943 25.126 61.3686 27.5 61.3686C29.331 61.3686 30.966 62.4826 31.653 64.1106C32.333 63.6184 33.155 63.3455 34 63.3455C36.206 63.3455 38 65.1189 38 67.2995C38 67.3469 37.999 67.3934 37.996 67.4398C39.739 67.8827 41 69.4435 41 71.2534Z" fill="#472B29"/>
<path d="M31.5 74.2188C31.341 74.2188 30.659 74.2188 30.5 74.2188C30.224 74.2188 30 74.4402 30 74.7131C30 74.9859 30.224 75.2073 30.5 75.2073C30.659 75.2073 31.341 75.2073 31.5 75.2073C31.776 75.2073 32 74.9859 32 74.7131C32 74.4402 31.776 74.2188 31.5 74.2188Z" fill="#472B29"/>
<path d="M36.989 70.2768C33.123 70.2758 29.989 67.1779 29.989 63.3564V35.6573C29.989 31.8358 33.123 28.7379 36.989 28.7379H65.012C68.878 28.7379 72.012 31.8358 72.012 35.6573V63.3574C72.012 67.1789 68.878 70.2768 65.012 70.2768H36.989Z" fill="#6E78AD"/>
<path d="M65 29.1442C68.639 29.1442 71.6 32.0711 71.6 35.6681V63.3456C71.6 66.9426 68.639 69.8695 65 69.8695H37C33.361 69.8695 30.4 66.9426 30.4 63.3456V35.6681C30.4 32.0711 33.361 29.1442 37 29.1442H65ZM65 27.7603H37C32.582 27.7603 29 31.301 29 35.6681V63.3456C29 67.7127 32.582 71.2534 37 71.2534H65C69.418 71.2534 73 67.7127 73 63.3456V35.6681C73 31.301 69.418 27.7603 65 27.7603Z" fill="#472B29"/>
<path d="M69.5 40.6105C69.224 40.6105 69 40.3891 69 40.1163V36.1624C69 33.71 66.981 31.7142 64.5 31.7142H53.5C53.224 31.7142 53 31.4928 53 31.22C53 30.9472 53.224 30.7257 53.5 30.7257H64.5C67.532 30.7257 70 33.1643 70 36.1624V40.1163C70 40.3891 69.776 40.6105 69.5 40.6105Z" fill="#472B29"/>
<path d="M69.5 56.4262C69.224 56.4262 69 56.2048 69 55.932V47.0198C69 46.747 69.224 46.5256 69.5 46.5256C69.776 46.5256 70 46.747 70 47.0198V55.932C70 56.2048 69.776 56.4262 69.5 56.4262Z" fill="#472B29"/>
<path d="M70 62.8513C70 65.8494 67.532 68.2879 64.5 68.2879H37.5C34.468 68.2879 32 65.8494 32 62.8513V36.1624C32 33.1643 34.468 30.7257 37.5 30.7257H44.5C44.776 30.7257 45 30.9472 45 31.22C45 31.4928 44.776 31.7142 44.5 31.7142H37.5C35.019 31.7142 33 33.71 33 36.1624V62.8513C33 65.3037 35.019 67.2995 37.5 67.2995H64.5C66.981 67.2995 69 65.3037 69 62.8513V58.8974C69 58.6246 69.224 58.4032 69.5 58.4032C69.776 58.4032 70 58.6246 70 58.8974V62.8513Z" fill="#472B29"/>
<path d="M50.5 31.7142H47.5C47.224 31.7142 47 31.4928 47 31.22C47 30.9472 47.224 30.7257 47.5 30.7257H50.5C50.776 30.7257 51 30.9472 51 31.22C51 31.4928 50.776 31.7142 50.5 31.7142Z" fill="#472B29"/>
<path d="M18.5 50.4953H17.5C17.224 50.4953 17 50.2739 17 50.0011C17 49.7283 17.224 49.5069 17.5 49.5069H18.5C18.776 49.5069 19 49.7283 19 50.0011C19 50.2739 18.777 50.4953 18.5 50.4953Z" fill="white"/>
<path d="M23.491 52.4723H14.5C14.224 52.4723 14 52.2509 14 51.9781C14 51.7052 14.224 51.4838 14.5 51.4838H23.491C23.767 51.4838 23.991 51.7052 23.991 51.9781C23.991 52.2509 23.767 52.4723 23.491 52.4723Z" fill="white"/>
<path d="M18.5 45.5529C18.323 45.5529 17.677 45.5529 17.5 45.5529C17.224 45.5529 17 45.7744 17 46.0472C17 46.32 17.224 46.5414 17.5 46.5414C17.677 46.5414 18.323 46.5414 18.5 46.5414C18.776 46.5414 19 46.32 19 46.0472C19 45.7744 18.776 45.5529 18.5 45.5529Z" fill="white"/>
<path d="M18.5 47.5299C18.323 47.5299 13.677 47.5299 13.5 47.5299C13.224 47.5299 13 47.7513 13 48.0241C13 48.297 13.224 48.5184 13.5 48.5184C13.677 48.5184 18.323 48.5184 18.5 48.5184C18.776 48.5184 19 48.297 19 48.0241C19 47.7513 18.776 47.5299 18.5 47.5299Z" fill="white"/>
<path d="M23.5 49.5069C23.323 49.5069 20.677 49.5069 20.5 49.5069C20.224 49.5069 20 49.7283 20 50.0011C20 50.2739 20.224 50.4953 20.5 50.4953C20.677 50.4953 23.323 50.4953 23.5 50.4953C23.776 50.4953 24 50.2739 24 50.0011C24 49.7283 23.776 49.5069 23.5 49.5069Z" fill="white"/>
<path d="M87.5 64.334H77.5C77.224 64.334 77 64.1126 77 63.8398C77 63.567 77.224 63.3456 77.5 63.3456H87.5C87.776 63.3456 88 63.567 88 63.8398C88 64.1126 87.776 64.334 87.5 64.334Z" fill="white"/>
<path d="M92 63.8398C92 64.1126 91.776 64.334 91.5 64.334H89.5C89.224 64.334 89 64.1126 89 63.8398C89 63.567 89.224 63.3456 89.5 63.3456H91.5C91.776 63.3456 92 63.567 92 63.8398Z" fill="white"/>
<path d="M96.5 66.311H86.5C86.224 66.311 86 66.0896 86 65.8167C86 65.5439 86.224 65.3225 86.5 65.3225H96.5C96.776 65.3225 97 65.5439 97 65.8167C97 66.0896 96.777 66.311 96.5 66.311Z" fill="white"/>
<path d="M84.5 66.311H83.5C83.224 66.311 83 66.0896 83 65.8167C83 65.5439 83.224 65.3225 83.5 65.3225H84.5C84.776 65.3225 85 65.5439 85 65.8167C85 66.0896 84.776 66.311 84.5 66.311Z" fill="white"/>
<path d="M81.375 66.311H79.5C79.224 66.311 79 66.0896 79 65.8167C79 65.5439 79.224 65.3225 79.5 65.3225H81.375C81.651 65.3225 81.875 65.5439 81.875 65.8167C81.875 66.0896 81.651 66.311 81.375 66.311Z" fill="white"/>
<path d="M91 61.8628C91 62.1357 90.777 62.3571 90.5 62.3571H85.5C85.224 62.3571 85 62.1357 85 61.8628C85 61.59 85.224 61.3686 85.5 61.3686H90.5C90.776 61.3686 91 61.59 91 61.8628Z" fill="white"/>
<path d="M87.5 68.2879H85.5C85.224 68.2879 85 68.0665 85 67.7937C85 67.5209 85.224 67.2995 85.5 67.2995H87.5C87.776 67.2995 88 67.5209 88 67.7937C88 68.0665 87.776 68.2879 87.5 68.2879Z" fill="white"/>
<path d="M80.875 34.1854C80.875 34.1854 84.515 34.1854 87 34.1854C89.485 34.1854 91.5 32.1936 91.5 29.7373C91.5 27.4312 89.718 25.557 87.445 25.3336C87.467 25.1547 87.5 24.9797 87.5 24.7949C87.5 22.3385 85.485 20.3467 83 20.3467C81.562 20.3467 80.297 21.0248 79.473 22.0627C79.333 19.4571 77.171 17.3813 74.5 17.3813C71.739 17.3813 69.5 19.5945 69.5 22.3237C69.5 22.7645 69.577 23.1837 69.687 23.5909C69.045 22.8229 68.086 22.3237 67 22.3237C65.219 22.3237 63.766 23.6433 63.545 25.3435C63.364 25.3217 63.187 25.2891 63 25.2891C60.515 25.2891 58.5 27.2809 58.5 29.7373C58.5 32.1936 60.515 34.1854 63 34.1854C65.485 34.1854 72.5 34.1854 72.5 34.1854H77.875V34.6797H80.875V34.1854Z" fill="#FDFCEF"/>
<path d="M74.5 16.887C71.467 16.887 69 19.3256 69 22.3237C69 22.3395 69 22.3543 69 22.3701C68.398 22.0192 67.71 21.8294 67 21.8294C65.169 21.8294 63.589 23.0759 63.142 24.7998C63.095 24.7968 63.048 24.7949 63 24.7949C60.243 24.7949 58 27.012 58 29.7373C58 32.4625 60.243 34.6796 63 34.6796H77.875C78.151 34.6796 78.375 34.4582 78.375 34.1854C78.375 33.9126 78.151 33.6912 77.875 33.6912H63C60.794 33.6912 59 31.9178 59 29.7373C59 27.5567 60.794 25.7833 63 25.7833C63.117 25.7833 63.23 25.8001 63.343 25.815L63.484 25.8337C63.505 25.8367 63.525 25.8377 63.546 25.8377C63.792 25.8377 64.008 25.6548 64.041 25.4057C64.232 23.9299 65.504 22.8179 67 22.8179C67.885 22.8179 68.723 23.2143 69.301 23.9052C69.399 24.0219 69.542 24.0851 69.687 24.0851C69.765 24.0851 69.843 24.0673 69.915 24.0298C70.124 23.924 70.229 23.6878 70.169 23.4634C70.054 23.0334 70 22.6716 70 22.3237C70 19.8712 72.019 17.8755 74.5 17.8755C76.881 17.8755 78.847 19.7259 78.974 22.0894C78.985 22.295 79.124 22.4719 79.323 22.5342C79.373 22.55 79.424 22.5579 79.475 22.5579C79.625 22.5579 79.771 22.4897 79.867 22.3681C80.638 21.3975 81.779 20.8409 83 20.8409C85.206 20.8409 87 22.6143 87 24.7949C87 24.9105 86.983 25.0222 86.968 25.1339L86.949 25.2733C86.933 25.4057 86.971 25.5382 87.055 25.642C87.139 25.7458 87.262 25.812 87.395 25.8249C89.451 26.0275 91 27.7099 91 29.7373C91 31.9178 89.206 33.6912 87 33.6912H80.875C80.599 33.6912 80.375 33.9126 80.375 34.1854C80.375 34.4582 80.599 34.6796 80.875 34.6796H87C89.757 34.6796 92 32.4625 92 29.7373C92 27.3679 90.311 25.3751 87.997 24.9164C87.999 24.8759 88 24.8354 88 24.7949C88 22.0696 85.757 19.8525 83 19.8525C81.824 19.8525 80.707 20.2637 79.817 21.0031C79.219 18.6267 77.055 16.887 74.5 16.887Z" fill="#472B29"/>
<path d="M73 23.8064C71.597 23.8064 70.3909 24.7939 70.0869 26.1204C69.7199 25.901 69.301 25.7833 68.875 25.7833C67.673 25.7833 66.677 26.67 66.522 27.8275C66.319 27.782 66.126 27.7603 65.938 27.7603C64.409 27.7603 63.127 28.9465 63.02 30.4608C63.01 30.5972 63.114 30.7159 63.251 30.7257C63.257 30.7257 63.263 30.7257 63.269 30.7257C63.399 30.7257 63.509 30.6259 63.518 30.4964C63.607 29.2401 64.6689 28.2545 65.9369 28.2545C66.1659 28.2545 66.407 28.2961 66.675 28.3801C66.697 28.387 66.7199 28.39 66.7419 28.39C66.7969 28.39 66.852 28.3702 66.898 28.3366C66.962 28.2911 67 28.2101 67 28.131C67 27.1089 67.841 26.2776 68.875 26.2776C69.322 26.2776 69.76 26.4436 70.106 26.7451C70.153 26.7857 70.212 26.8074 70.271 26.8074C70.303 26.8074 70.3339 26.8015 70.3639 26.7886C70.4519 26.754 70.5119 26.673 70.5189 26.5791C70.6229 25.301 71.712 24.3006 73 24.3006C73.208 24.3006 73.425 24.3342 73.682 24.4064C73.705 24.4133 73.729 24.4163 73.752 24.4163C73.861 24.4163 73.9589 24.3441 73.9909 24.2364C74.0289 24.1049 73.952 23.9685 73.819 23.9309C73.517 23.8459 73.256 23.8064 73 23.8064Z" fill="#472B29"/>
<path d="M86.883 25.2891C85.557 25.2891 84.375 26.1758 84.009 27.446C83.971 27.5774 84.048 27.7138 84.181 27.7514C84.205 27.7573 84.228 27.7603 84.25 27.7603C84.359 27.7603 84.459 27.6891 84.49 27.5804C84.795 26.5227 85.779 25.7833 86.883 25.7833C87 25.7833 87.113 25.7972 87.225 25.812C87.237 25.814 87.248 25.815 87.26 25.815C87.381 25.815 87.489 25.724 87.506 25.6005C87.525 25.4651 87.429 25.3405 87.292 25.3227C87.158 25.3049 87.022 25.2891 86.883 25.2891Z" fill="#472B29"/>
<path d="M38 62.8513C37.173 62.8513 36.5 62.1861 36.5 61.3686V37.6451C36.5 36.8276 37.173 36.1624 38 36.1624H46.979C47.818 36.1624 48.5 36.8375 48.5 37.6659V61.3686C48.5 62.1861 47.827 62.8513 47 62.8513H38Z" fill="white"/>
<path d="M46.979 36.6566C47.542 36.6566 48 37.1093 48 37.6668V61.3686C48 61.9132 47.551 62.3571 47 62.3571H38C37.449 62.3571 37 61.9132 37 61.3686V37.6451C37 37.1004 37.449 36.6566 38 36.6566H46.979ZM46.979 35.6681H38C36.895 35.6681 36 36.5528 36 37.6451V61.3686C36 62.4609 36.895 63.3456 38 63.3456H47C48.105 63.3456 49 62.4609 49 61.3686V37.6668C49 36.5627 48.095 35.6681 46.979 35.6681Z" fill="#472B29"/>
<path d="M55.021 50.9896C54.182 50.9896 53.5 50.3144 53.5 49.4861V37.6659C53.5 36.8365 54.183 36.1624 55.021 36.1624H63.978C64.817 36.1624 65.499 36.8375 65.499 37.6659V49.4851C65.499 50.3144 64.816 50.9886 63.978 50.9886L55.021 50.9896Z" fill="white"/>
<path d="M63.979 36.6566C64.542 36.6566 65 37.1093 65 37.6668V49.4861C65 50.0426 64.542 50.4953 63.979 50.4953H55.022C54.458 50.4953 54 50.0426 54 49.4851V37.6668C54 37.1093 54.458 36.6566 55.021 36.6566H63.979ZM63.979 35.6681H55.022C53.905 35.6681 53 36.5627 53 37.6668V49.4861C53 50.5892 53.905 51.4838 55.021 51.4838H63.978C65.095 51.4838 66 50.5892 66 49.4851V37.6668C66 36.5627 65.095 35.6681 63.979 35.6681Z" fill="#472B29"/>
</svg>
