<svg width="85" height="85" viewBox="0 0 85 85" fill="none" xmlns="http://www.w3.org/2000/svg">
<path d="M70.55 24.4396V60.734C70.55 62.522 69.3999 64.1125 67.6668 64.704L54.825 70.5325L56.1 55.2576V29.9161L54.825 14.6411L67.6668 20.4696C69.3999 21.0603 70.55 22.6516 70.55 24.4396Z" fill="#78CDD4"/>
<path d="M54.825 71.3727C54.6533 71.3727 54.4824 71.3206 54.3371 71.2206C54.0897 71.0492 53.9537 70.7602 53.9775 70.4636L55.2525 55.1878L55.25 29.916L53.9775 14.7091C53.9537 14.4117 54.0897 14.1235 54.3371 13.9521C54.5844 13.7824 54.9049 13.753 55.1794 13.8765L68.0212 19.7058C70.0111 20.3797 71.4 22.2945 71.4 24.4387V60.7332C71.4 62.8782 70.0111 64.7922 67.9447 65.4971L55.1794 71.2963C55.0664 71.3475 54.9457 71.3727 54.825 71.3727ZM55.7923 16.003L56.9474 29.8471L56.95 55.2567L55.7914 69.1697L67.3132 63.9394C68.7718 63.4378 69.7 62.1615 69.7 60.734V24.4387C69.7 23.0112 68.7718 21.7341 67.3897 21.2636L55.7923 16.003Z" fill="#1F212B"/>
<path d="M20.4936 56.5187L56.1001 29.916V16.3341C56.1001 14.6478 53.9895 13.8588 52.8599 15.1233L14.3098 49.9625C13.028 51.1313 13.1003 53.1545 14.462 54.2308C14.462 54.2308 16.3473 55.965 17.0298 56.4464C18.0779 57.1858 19.4557 57.2707 20.4936 56.5187Z" fill="#39C2D8"/>
<path d="M18.8606 57.8832C18.0497 57.8832 17.2243 57.616 16.5358 57.1304C15.8295 56.6305 14.0793 55.0273 13.883 54.8459C13.0865 54.2191 12.5825 53.2243 12.5451 52.158C12.5068 51.0918 12.9412 50.0668 13.7334 49.3433L52.2554 14.5302C52.7747 13.9681 53.4751 13.6597 54.2325 13.6597C55.5678 13.6597 56.9491 14.6587 56.9491 16.3333V29.9161C56.9491 30.179 56.8241 30.4269 56.6116 30.5865L21.006 57.1892C20.3753 57.6463 19.6375 57.8832 18.8606 57.8832ZM54.2333 15.341C54.0361 15.341 53.748 15.399 53.4981 15.6796C53.4785 15.7014 53.4564 15.7233 53.4343 15.7434L14.8834 50.5826C14.4576 50.9708 14.2238 51.5245 14.2434 52.1009C14.2638 52.6781 14.5375 53.215 14.9931 53.5763C15.5541 54.088 17.0008 55.3945 17.5244 55.7642C18.286 56.3019 19.2992 56.3431 19.9919 55.8423L55.2499 29.4976V16.3341C55.2499 15.7124 54.7331 15.341 54.2333 15.341Z" fill="#1F212B"/>
<path d="M43.7656 40.1758L33.1602 31.7494L18.2656 45.2196L27.4244 52.4168L43.7656 40.1758Z" fill="#39C2D8"/>
<path d="M20.4936 28.6541L56.1001 55.2575V68.8386C56.1001 70.5249 53.9895 71.3139 52.8599 70.0494L14.3098 35.211C13.028 34.0423 13.1003 32.0191 14.462 30.9428C14.462 30.9428 16.3473 29.2086 17.0298 28.7272C18.0779 27.9869 19.4557 27.9029 20.4936 28.6541Z" fill="#39C2D8"/>
<path d="M54.2333 71.5122C53.4751 71.5122 52.7756 71.2038 52.2562 70.6417L13.7359 35.8311C12.9395 35.106 12.5068 34.0801 12.5451 33.0131C12.5825 31.946 13.0882 30.9529 13.9306 30.2857C14.0802 30.1454 15.8295 28.5415 16.5358 28.0424C17.8839 27.0913 19.7259 27.056 20.9958 27.976L56.6116 54.5862C56.825 54.7459 56.9499 54.9937 56.9499 55.2567V68.8387C56.9499 70.5123 55.5687 71.5122 54.2333 71.5122ZM18.8606 28.97C18.4007 28.97 17.9256 29.1263 17.5235 29.4102C17.0008 29.7783 15.5541 31.0848 15.0407 31.5578C14.5366 31.9594 14.2638 32.4955 14.2434 33.0727C14.2238 33.6491 14.4576 34.2028 14.886 34.5935L53.4343 69.4293C53.4564 69.4495 53.4785 69.4713 53.4981 69.4932C53.748 69.7738 54.0361 69.8318 54.2333 69.8318C54.7331 69.8318 55.2499 69.4612 55.2499 68.8387V55.6751L19.9817 29.3245C19.6647 29.0943 19.2728 28.97 18.8606 28.97Z" fill="#1F212B"/>
<path d="M42.0275 41.2799C41.7699 41.2799 41.5158 41.1648 41.3483 40.9471C41.0653 40.5766 41.1392 40.0498 41.5132 39.77L45.073 37.1099C45.447 36.8285 45.98 36.9041 46.2639 37.2729C46.5469 37.6435 46.473 38.1703 46.099 38.4501L42.5392 41.1102C42.3862 41.2253 42.206 41.2799 42.0275 41.2799Z" fill="#1F212B"/>
<path d="M24.7001 54.23C24.4425 54.23 24.1884 54.1149 24.0209 53.8972C23.7379 53.5276 23.8118 52.9999 24.1858 52.7201L26.8557 50.7246C27.2305 50.444 27.7626 50.5179 28.0465 50.8876C28.3296 51.2573 28.2556 51.785 27.8816 52.0648L25.2118 54.0602C25.0579 54.1745 24.8786 54.23 24.7001 54.23Z" fill="#1F212B"/>
<path d="M66.725 61.3188C66.4904 61.3188 66.3 61.1306 66.3 60.8987V56.0675C66.3 55.8356 66.4904 55.6474 66.725 55.6474C66.9596 55.6474 67.15 55.8356 67.15 56.0675V60.8987C67.15 61.1306 66.9596 61.3188 66.725 61.3188ZM66.725 53.967C66.4904 53.967 66.3 53.7788 66.3 53.5469V52.7067C66.3 52.4748 66.4904 52.2866 66.725 52.2866C66.9596 52.2866 67.15 52.4748 67.15 52.7067V53.5469C67.15 53.7788 66.9596 53.967 66.725 53.967ZM66.725 51.4464C66.4904 51.4464 66.3 51.2581 66.3 51.0263V47.6654C66.3 47.4335 66.4904 47.2453 66.725 47.2453C66.9596 47.2453 67.15 47.4335 67.15 47.6654V51.0263C67.15 51.2581 66.9596 51.4464 66.725 51.4464ZM66.725 45.5649C66.4904 45.5649 66.3 45.3767 66.3 45.1448V24.1396C66.3 23.9077 66.4904 23.7195 66.725 23.7195C66.9596 23.7195 67.15 23.9077 67.15 24.1396V45.1448C67.15 45.3767 66.9596 45.5649 66.725 45.5649Z" fill="#1F212B"/>
<path d="M32.7513 34.1347C32.5201 34.1347 32.2889 34.0423 32.1214 33.8591C31.8061 33.5155 31.8324 32.9837 32.1801 32.6719L35.1024 30.0547C35.45 29.7447 35.9881 29.7682 36.3034 30.1127C36.6188 30.4563 36.5924 30.9882 36.2448 31.2999L33.3225 33.9171C33.1601 34.0633 32.9553 34.1347 32.7513 34.1347Z" fill="#1F212B"/>
<path d="M17.465 47.9637C17.2347 47.9637 17.0052 47.8721 16.8377 47.6906C16.5207 47.3478 16.5453 46.816 16.8913 46.5034L19.2432 44.3811C19.59 44.0677 20.1272 44.0903 20.4443 44.4348C20.7613 44.7768 20.7367 45.3086 20.3907 45.6212L18.0388 47.7436C17.8747 47.8923 17.6699 47.9637 17.465 47.9637Z" fill="#1F212B"/>
</svg>
